<svg xmlns="http://www.w3.org/2000/svg" xmlns:xlink="http://www.w3.org/1999/xlink" width="800" zoomAndPan="magnify" viewBox="0 0 600 225" height="300" preserveAspectRatio="xMidYMid meet" version="1.0"><defs><g/><clipPath id="9b5699faa7"><path d="M 22.5 27.570312 L 148 27.570312 L 148 152 L 22.5 152 Z M 22.5 27.570312 " clip-rule="nonzero"/></clipPath><clipPath id="1657f2e00e"><path d="M 28 89 L 131 89 L 131 197.070312 L 28 197.070312 Z M 28 89 " clip-rule="nonzero"/></clipPath><clipPath id="d0b87c48cd"><path d="M 35 27.570312 L 132 27.570312 L 132 102 L 35 102 Z M 35 27.570312 " clip-rule="nonzero"/></clipPath></defs><g clip-path="url(#9b5699faa7)"><path fill="#ffde59" d="M 22.789062 89.667969 C 22.789062 91.699219 22.890625 93.730469 23.089844 95.753906 C 23.289062 97.777344 23.589844 99.785156 23.984375 101.78125 C 24.382812 103.773438 24.878906 105.746094 25.46875 107.691406 C 26.0625 109.636719 26.746094 111.550781 27.527344 113.429688 C 28.308594 115.308594 29.175781 117.144531 30.136719 118.9375 C 31.097656 120.730469 32.144531 122.472656 33.277344 124.164062 C 34.410156 125.855469 35.621094 127.488281 36.914062 129.058594 C 38.207031 130.628906 39.574219 132.136719 41.015625 133.574219 C 42.457031 135.011719 43.964844 136.375 45.539062 137.667969 C 47.113281 138.957031 48.75 140.167969 50.445312 141.296875 C 52.140625 142.425781 53.886719 143.46875 55.683594 144.429688 C 57.480469 145.386719 59.320312 146.257812 61.203125 147.035156 C 63.085938 147.8125 65 148.496094 66.953125 149.085938 C 68.902344 149.675781 70.875 150.171875 72.875 150.566406 C 74.875 150.964844 76.886719 151.261719 78.914062 151.460938 C 80.941406 151.660156 82.976562 151.761719 85.015625 151.761719 C 87.050781 151.761719 89.085938 151.660156 91.113281 151.460938 C 93.140625 151.261719 95.152344 150.964844 97.152344 150.566406 C 99.152344 150.171875 101.125 149.675781 103.078125 149.085938 C 105.027344 148.496094 106.941406 147.8125 108.824219 147.035156 C 110.707031 146.257812 112.546875 145.386719 114.34375 144.429688 C 116.144531 143.46875 117.886719 142.425781 119.582031 141.296875 C 121.277344 140.167969 122.914062 138.957031 124.488281 137.667969 C 126.0625 136.375 127.570312 135.011719 129.011719 133.574219 C 130.453125 132.136719 131.820312 130.628906 133.113281 129.058594 C 134.40625 127.488281 135.617188 125.855469 136.75 124.164062 C 137.882812 122.472656 138.929688 120.730469 139.890625 118.9375 C 140.851562 117.144531 141.71875 115.308594 142.5 113.429688 C 143.28125 111.550781 143.964844 109.636719 144.558594 107.691406 C 145.148438 105.746094 145.644531 103.773438 146.042969 101.78125 C 146.4375 99.785156 146.738281 97.777344 146.9375 95.753906 C 147.136719 93.730469 147.238281 91.699219 147.238281 89.667969 C 147.238281 87.632812 147.136719 85.605469 146.9375 83.582031 C 146.738281 81.554688 146.4375 79.546875 146.042969 77.550781 C 145.644531 75.558594 145.148438 73.585938 144.558594 71.640625 C 143.964844 69.695312 143.28125 67.78125 142.5 65.902344 C 141.71875 64.023438 140.851562 62.1875 139.890625 60.394531 C 138.929688 58.601562 137.882812 56.859375 136.75 55.167969 C 135.617188 53.476562 134.40625 51.847656 133.113281 50.273438 C 131.820312 48.703125 130.453125 47.195312 129.011719 45.757812 C 127.570312 44.320312 126.0625 42.957031 124.488281 41.667969 C 122.914062 40.375 121.277344 39.167969 119.582031 38.035156 C 117.886719 36.90625 116.144531 35.863281 114.34375 34.902344 C 112.546875 33.945312 110.707031 33.078125 108.824219 32.300781 C 106.941406 31.519531 105.027344 30.835938 103.078125 30.246094 C 101.125 29.65625 99.152344 29.160156 97.152344 28.765625 C 95.152344 28.367188 93.140625 28.070312 91.113281 27.871094 C 89.085938 27.671875 87.050781 27.570312 85.015625 27.570312 C 82.976562 27.570312 80.941406 27.671875 78.914062 27.871094 C 76.886719 28.070312 74.875 28.367188 72.875 28.765625 C 70.875 29.160156 68.902344 29.65625 66.953125 30.246094 C 65 30.835938 63.085938 31.519531 61.203125 32.300781 C 59.320312 33.078125 57.480469 33.945312 55.683594 34.902344 C 53.886719 35.863281 52.140625 36.90625 50.445312 38.035156 C 48.75 39.167969 47.113281 40.375 45.539062 41.667969 C 43.964844 42.957031 42.457031 44.320312 41.015625 45.757812 C 39.574219 47.195312 38.207031 48.703125 36.914062 50.273438 C 35.621094 51.847656 34.410156 53.476562 33.277344 55.167969 C 32.144531 56.859375 31.097656 58.601562 30.136719 60.394531 C 29.175781 62.1875 28.308594 64.023438 27.527344 65.902344 C 26.746094 67.78125 26.0625 69.695312 25.46875 71.640625 C 24.878906 73.585938 24.382812 75.558594 23.984375 77.550781 C 23.589844 79.546875 23.289062 81.554688 23.089844 83.582031 C 22.890625 85.605469 22.789062 87.632812 22.789062 89.667969 Z M 22.789062 89.667969 " fill-opacity="1" fill-rule="nonzero"/></g><path fill="#ffffff" d="M 43.699219 196.953125 C 43.699219 183.988281 48.578125 142.09375 48.578125 142.09375 L 38.796875 138.75 C 38.796875 138.75 43.984375 117.574219 51.617188 109.339844 C 59.25 101.101562 76.210938 100.050781 76.210938 100.050781 C 80.492188 105.089844 87.359375 100.816406 87.359375 100.816406 C 107.8125 100.957031 120.347656 131.132812 120.347656 131.132812 L 108.746094 139.65625 C 108.746094 139.65625 111.878906 174.058594 111.542969 196.953125 " fill-opacity="1" fill-rule="nonzero"/><g clip-path="url(#1657f2e00e)"><path stroke-linecap="butt" transform="matrix(-2.392275, 0, 0, 2.387324, 147.236859, 27.57223)" fill="none" stroke-linejoin="miter" d="M 43.279985 70.950115 C 43.279985 65.519413 41.240543 47.97067 41.240543 47.97067 L 45.329224 46.570043 C 45.329224 46.570043 43.160786 37.699951 39.970178 34.250744 C 36.77957 30.7999 29.689693 30.35975 29.689693 30.35975 C 27.900079 32.470508 25.029512 30.680454 25.029512 30.680454 C 16.479859 30.739359 11.240012 43.379363 11.240012 43.379363 L 16.089605 46.949652 C 16.089605 46.949652 14.780052 61.360075 14.920478 70.950115 " stroke="#000000" stroke-width="0.3" stroke-opacity="1" stroke-miterlimit="10"/></g><path stroke-linecap="butt" transform="matrix(-2.392275, 0, 0, 2.387324, 147.236859, 27.57223)" fill-opacity="1" fill="#ffffff" fill-rule="nonzero" stroke-linejoin="miter" d="M 29.689693 25.9697 L 29.689693 30.610095 C 29.689693 30.610095 29.800728 35.350301 25.83941 37.210714 C 25.83941 37.210714 23.729756 34.470001 25.029512 30.680454 L 25.029512 27.22961 Z M 29.689693 25.9697 " stroke="#000000" stroke-width="0.3" stroke-opacity="1" stroke-miterlimit="10"/><path stroke-linecap="butt" transform="matrix(-2.392275, 0, 0, 2.387324, 147.236859, 27.57223)" fill-opacity="1" fill="#ffffff" fill-rule="nonzero" stroke-linejoin="miter" d="M 32.880301 23.369705 C 32.460656 24.64925 31.190292 26.670014 28.709978 27.890654 C 26.939958 28.759501 24.559248 29.23074 21.440486 28.739866 C 14.370204 27.650126 17.049727 12.729194 17.049727 12.729194 C 17.049727 12.729194 17.209747 10.289551 25.35935 9.479609 C 31.440119 8.880743 32.83948 15.569718 33.050119 19.74051 C 33.520382 19.310177 34.189855 18.999291 35.069966 19.390354 C 36.839986 20.180661 35.790057 24.739243 32.880301 23.369705 Z M 32.880301 23.369705 " stroke="#000000" stroke-width="0.3" stroke-opacity="1" stroke-miterlimit="10"/><path fill="#000000" d="M 77.527344 58.582031 C 77.527344 58.582031 84.871094 60.636719 88.292969 55.695312 C 88.292969 55.695312 93.671875 58.296875 95.996094 56.914062 C 95.996094 56.914062 100.300781 62.785156 107.285156 62.210938 C 114.246094 61.640625 117.285156 50.347656 109.75 46.480469 C 109.75 46.480469 110.179688 36.8125 100.996094 35.285156 C 91.832031 33.753906 89.25 39.484375 89.25 39.484375 C 89.25 39.484375 86.761719 36.429688 83.386719 36.523438 C 80.015625 36.597656 77.886719 39.414062 77.886719 39.414062 C 77.886719 39.414062 74.199219 36.738281 68.507812 37.8125 C 62.835938 38.886719 62.527344 47.410156 62.527344 47.410156 C 62.527344 47.410156 60.230469 45.429688 56.546875 49.390625 C 52.863281 53.355469 51.234375 63.859375 54.847656 68.132812 C 54.847656 68.132812 50.875 72.40625 55.949219 79.496094 C 61.042969 86.585938 67.382812 83.984375 67.382812 83.984375 C 67.382812 83.984375 64.320312 84.320312 62.765625 82.386719 C 61.210938 80.453125 59.773438 76.34375 62.574219 74.339844 C 65.398438 72.335938 68.101562 74.722656 68.101562 74.722656 C 68.101562 74.722656 77.910156 66.582031 77.527344 58.582031 Z M 77.527344 58.582031 " fill-opacity="1" fill-rule="nonzero"/><g clip-path="url(#d0b87c48cd)"><path stroke-linecap="butt" transform="matrix(-2.392275, 0, 0, 2.387324, 147.236859, 27.57223)" fill="none" stroke-linejoin="miter" d="M 29.13942 12.989357 C 29.13942 12.989357 26.069644 13.850023 24.639258 11.780171 C 24.639258 11.780171 22.390811 12.869911 21.419259 12.29068 C 21.419259 12.29068 19.619848 14.749959 16.700295 14.50943 C 13.790539 14.270538 12.520174 9.54015 15.66996 7.920266 C 15.66996 7.920266 15.490346 3.870556 19.329199 3.230784 C 23.159888 2.589375 24.239208 4.989749 24.239208 4.989749 C 24.239208 4.989749 25.279339 3.710204 26.69013 3.749474 C 28.099288 3.780562 28.989197 4.960296 28.989197 4.960296 C 28.989197 4.960296 30.530616 3.839467 32.909693 4.289435 C 35.280605 4.739403 35.409601 8.309693 35.409601 8.309693 C 35.409601 8.309693 36.369722 7.480116 37.909509 9.13927 C 39.449296 10.80006 40.130198 15.199926 38.619803 16.98998 C 38.619803 16.98998 40.280421 18.780034 38.159337 21.749821 C 36.030088 24.719608 33.379956 23.629868 33.379956 23.629868 C 33.379956 23.629868 34.660118 23.770585 35.309997 22.960643 C 35.959875 22.150701 36.560767 20.42937 35.390007 19.589976 C 34.209449 18.750581 33.07951 19.750328 33.07951 19.750328 C 33.07951 19.750328 28.979399 16.34039 29.13942 12.989357 Z M 29.13942 12.989357 " stroke="#000000" stroke-width="0.5" stroke-opacity="1" stroke-miterlimit="10"/></g><path stroke-linecap="butt" transform="matrix(-2.392275, 0, 0, 2.387324, 147.236859, 27.57223)" fill-opacity="1" fill="#ffffff" fill-rule="nonzero" stroke-linejoin="miter" d="M 15.219291 28.92967 L 12.689991 44.43965 L 16.089605 46.939835 C 16.089605 46.939835 13.940762 56.899667 6.620652 53.409553 C -0.689661 49.91944 11.240012 28.219539 11.240012 28.219539 C 11.240012 28.219539 10.800773 18.789851 12.520174 18.159896 L 16.559869 21.869267 C 16.559869 21.869267 16.649676 24.330182 16.559869 25.959883 C 16.479859 27.599402 15.219291 28.92967 15.219291 28.92967 Z M 15.219291 28.92967 " stroke="#000000" stroke-width="0.3" stroke-opacity="1" stroke-miterlimit="10"/><path fill="#000000" d="M 94.4375 73.3125 C 94.4375 76.25 96.6875 78.707031 99.605469 78.972656 L 115.636719 80.425781 L 115.636719 66.367188 L 99.65625 67.679688 C 96.710938 67.894531 94.4375 70.351562 94.4375 73.3125 Z M 94.4375 73.3125 " fill-opacity="1" fill-rule="nonzero"/><path stroke-linecap="butt" transform="matrix(-2.392275, 0, 0, 2.387324, 147.236859, 27.57223)" fill-opacity="1" fill="#ffffff" fill-rule="nonzero" stroke-linejoin="miter" d="M 15.890396 19.190731 C 15.890396 20.669898 14.690244 21.869267 13.209241 21.869267 C 11.72987 21.869267 10.529718 20.669898 10.529718 19.190731 C 10.529718 17.709928 11.72987 16.51056 13.209241 16.51056 C 14.690244 16.51056 15.890396 17.709928 15.890396 19.190731 Z M 15.890396 19.190731 " stroke="#000000" stroke-width="0.3" stroke-opacity="1" stroke-miterlimit="10"/><path fill="#000000" d="M 110.945312 73.386719 C 110.945312 75.964844 113.050781 78.0625 115.636719 78.0625 C 118.21875 78.0625 120.324219 75.964844 120.324219 73.386719 C 120.324219 70.808594 118.21875 68.707031 115.636719 68.707031 C 113.050781 68.707031 110.945312 70.808594 110.945312 73.386719 Z M 110.945312 73.386719 " fill-opacity="1" fill-rule="nonzero"/><path fill="#000000" d="M 74.152344 73.3125 C 74.152344 76.25 76.402344 78.707031 79.320312 78.972656 L 95.347656 80.425781 L 95.347656 66.367188 L 79.367188 67.679688 C 76.425781 67.894531 74.152344 70.351562 74.152344 73.3125 Z M 74.152344 73.3125 " fill-opacity="1" fill-rule="nonzero"/><path stroke-linecap="butt" transform="matrix(-2.392275, 0, 0, 2.387324, 147.236859, 27.57223)" fill-opacity="1" fill="#ffffff" fill-rule="nonzero" stroke-linejoin="miter" d="M 24.369837 19.190731 C 24.369837 20.669898 23.169685 21.869267 21.690314 21.869267 C 20.20931 21.869267 19.010791 20.669898 19.010791 19.190731 C 19.010791 17.709928 20.20931 16.51056 21.690314 16.51056 C 23.169685 16.51056 24.369837 17.709928 24.369837 19.190731 Z M 24.369837 19.190731 " stroke="#000000" stroke-width="0.3" stroke-opacity="1" stroke-miterlimit="10"/><path fill="#000000" d="M 90.660156 73.386719 C 90.660156 75.964844 92.765625 78.0625 95.347656 78.0625 C 97.933594 78.0625 100.039062 75.964844 100.039062 73.386719 C 100.039062 70.808594 97.933594 68.707031 95.347656 68.707031 C 92.765625 68.707031 90.660156 70.808594 90.660156 73.386719 Z M 90.660156 73.386719 " fill-opacity="1" fill-rule="nonzero"/><path stroke-linecap="butt" transform="matrix(-2.392275, 0, 0, 2.387324, 147.236859, 27.57223)" fill-opacity="1" fill="#ffffff" fill-rule="nonzero" stroke-linejoin="miter" d="M 18.13068 15.440455 C 18.13068 15.440455 19.830487 15.93951 19.680264 16.870534 C 19.53004 17.809739 17.039929 16.000051 17.039929 16.000051 C 17.039929 16.000051 17.129737 15.430637 18.13068 15.440455 Z M 18.13068 15.440455 " stroke="#000000" stroke-width="0.3" stroke-opacity="1" stroke-miterlimit="10"/><path stroke-linecap="butt" transform="matrix(-2.392275, 0, 0, 2.387324, 147.236859, 27.57223)" fill-opacity="1" fill="#ffffff" fill-rule="nonzero" stroke-linejoin="miter" d="M 16.370457 15.530448 C 16.370457 15.530448 18.070264 16.029503 17.920041 16.960528 C 17.769818 17.889916 15.279707 16.090044 15.279707 16.090044 C 15.279707 16.090044 15.359717 15.510813 16.370457 15.530448 Z M 16.370457 15.530448 " stroke="#000000" stroke-width="0.3" stroke-opacity="1" stroke-miterlimit="10"/><path stroke-linecap="butt" transform="matrix(-2.392275, 0, 0, 2.387324, 147.236859, 27.57223)" fill-opacity="1" fill="#ffffff" fill-rule="nonzero" stroke-linejoin="miter" d="M 14.600437 15.620442 C 14.600437 15.620442 16.300244 16.119497 16.150021 17.050521 C 15.999798 17.979909 13.509687 16.180038 13.509687 16.180038 C 13.509687 16.180038 13.589697 15.600807 14.600437 15.620442 Z M 14.600437 15.620442 " stroke="#000000" stroke-width="0.3" stroke-opacity="1" stroke-miterlimit="10"/><path stroke-linecap="butt" transform="matrix(-2.392275, 0, 0, 2.387324, 147.236859, 27.57223)" fill-opacity="1" fill="#ffffff" fill-rule="nonzero" stroke-linejoin="miter" d="M 16.390051 24.850508 C 16.390051 24.850508 16.889706 23.070272 18.19926 22.690663 C 19.510446 22.309417 19.990507 21.380029 19.010791 21.409482 C 18.03924 21.44057 16.150021 21.589469 15.740173 21.869267 " stroke="#000000" stroke-width="0.3" stroke-opacity="1" stroke-miterlimit="10"/><path stroke-linecap="butt" transform="matrix(-2.392275, 0, 0, 2.387324, 147.236859, 27.57223)" fill-opacity="1" fill="#ffffff" fill-rule="nonzero" stroke-linejoin="miter" d="M 40.380026 55.430318 C 33.740818 56.07009 30.370596 26.220046 30.370596 26.220046 C 30.370596 26.220046 28.54016 24.349816 28.280536 22.26033 C 28.030708 20.180661 26.249258 17.209237 24.609867 16.500742 C 24.609867 16.500742 25.550394 16.070409 26.420708 16.630006 C 26.420708 16.630006 28.649562 16.270032 30.550211 16.289666 C 33.110534 16.309301 33.819196 19.959767 34.410291 22.12943 C 35.00955 24.300729 34.570311 25.400287 34.570311 25.400287 L 43.810664 46.830206 C 43.810664 46.830206 47.019233 54.790545 40.380026 55.430318 Z M 40.380026 55.430318 " stroke="#000000" stroke-width="0.3" stroke-opacity="1" stroke-miterlimit="10"/><path stroke-linecap="butt" transform="matrix(-2.392275, 0, 0, 2.387324, 147.236859, 27.57223)" fill="none" stroke-linejoin="miter" d="M 29.689693 19.689787 C 29.689693 19.689787 29.010424 17.659205 27.630657 16.469654 " stroke="#000000" stroke-width="0.5" stroke-opacity="1" stroke-miterlimit="10"/><path stroke-linecap="butt" transform="matrix(-2.392275, 0, 0, 2.387324, 147.236859, 27.57223)" fill="none" stroke-linejoin="miter" d="M 30.930667 19.190731 C 30.930667 19.190731 30.540413 17.379407 29.519876 16.320755 " stroke="#000000" stroke-width="0.5" stroke-opacity="1" stroke-miterlimit="10"/><path stroke-linecap="butt" transform="matrix(-2.392275, 0, 0, 2.387324, 147.236859, 27.57223)" fill="none" stroke-linejoin="miter" d="M 31.449916 16.469654 C 31.449916 16.469654 32.109592 17.970092 32.24022 18.699858 " stroke="#000000" stroke-width="0.5" stroke-opacity="1" stroke-miterlimit="10"/><path stroke-linecap="butt" transform="matrix(-2.392275, 0, 0, 2.387324, 147.236859, 27.57223)" fill="none" stroke-linejoin="miter" d="M 31.990393 36.760746 C 31.990393 36.760746 32.189602 39.720716 30.23017 40.010331 C 28.259308 40.309764 25.83941 37.19926 25.83941 37.19926 C 25.83941 37.19926 23.690567 40.470116 22.580222 40.029966 C 21.469878 39.579998 20.419949 34.470001 21.690314 31.339861 " stroke="#000000" stroke-width="0.3" stroke-opacity="1" stroke-miterlimit="10"/><path fill="#000000" d="M 83.722656 129.582031 C 83.722656 130.417969 84.390625 131.109375 85.253906 131.109375 C 86.113281 131.109375 86.761719 130.441406 86.761719 129.582031 C 86.761719 128.722656 86.089844 128.078125 85.253906 128.078125 C 84.414062 128.078125 83.722656 128.746094 83.722656 129.582031 Z M 83.722656 129.582031 " fill-opacity="1" fill-rule="nonzero"/><path fill="#000000" d="M 83.722656 149.996094 C 83.722656 150.828125 84.390625 151.523438 85.253906 151.523438 C 86.113281 151.523438 86.761719 150.855469 86.761719 149.996094 C 86.761719 149.132812 86.089844 148.488281 85.253906 148.488281 C 84.414062 148.488281 83.722656 149.160156 83.722656 149.996094 Z M 83.722656 149.996094 " fill-opacity="1" fill-rule="nonzero"/><path fill="#000000" d="M 83.722656 170.40625 C 83.722656 171.242188 84.390625 171.933594 85.253906 171.933594 C 86.113281 171.933594 86.761719 171.265625 86.761719 170.40625 C 86.761719 169.570312 86.089844 168.902344 85.253906 168.902344 C 84.414062 168.902344 83.722656 169.570312 83.722656 170.40625 Z M 83.722656 170.40625 " fill-opacity="1" fill-rule="nonzero"/><path fill="#000000" d="M 83.722656 190.816406 C 83.722656 191.652344 84.390625 192.320312 85.253906 192.320312 C 86.113281 192.320312 86.761719 191.652344 86.761719 190.816406 C 86.761719 189.980469 86.089844 189.289062 85.253906 189.289062 C 84.414062 189.289062 83.722656 189.980469 83.722656 190.816406 Z M 83.722656 190.816406 " fill-opacity="1" fill-rule="nonzero"/><path stroke-linecap="butt" transform="matrix(-2.392275, 0, 0, 2.387324, 147.236859, 27.57223)" fill-opacity="1" fill="#ffffff" fill-rule="nonzero" stroke-linejoin="miter" d="M 20.359533 24.140377 C 20.359533 24.140377 22.619411 24.930684 24.129806 23.479333 " stroke="#000000" stroke-width="0.3" stroke-opacity="1" stroke-miterlimit="10"/><path stroke-linecap="butt" transform="matrix(-2.392275, 0, 0, 2.387324, 147.236859, 27.57223)" fill-opacity="1" fill="#ffffff" fill-rule="nonzero" stroke-linejoin="miter" d="M 16.089605 46.939835 L 18.37071 42.729773 " stroke="#000000" stroke-width="0.3" stroke-opacity="1" stroke-miterlimit="10"/><g fill="#ffffff" fill-opacity="1"><g transform="translate(289.467907, 197.937196)"><g><path d="M 24.347656 1.035156 C 29.308594 1.035156 35.082031 -0.667969 39.449219 -3.773438 L 35.082031 -11.695312 C 32.046875 -9.917969 29.234375 -9.027344 26.199219 -9.027344 C 20.871094 -9.027344 16.875 -11.398438 15.691406 -17.171875 L 40.410156 -17.171875 C 40.707031 -18.132812 41 -20.5 41 -22.796875 C 41 -34.339844 35.082031 -43.148438 22.941406 -43.148438 C 12.730469 -43.148438 2.960938 -34.710938 2.960938 -21.019531 C 2.960938 -7.105469 12.285156 1.035156 24.347656 1.035156 Z M 15.46875 -25.753906 C 16.355469 -30.789062 19.539062 -33.082031 23.164062 -33.082031 C 27.976562 -33.082031 29.824219 -29.972656 29.824219 -25.753906 Z M 15.46875 -25.753906 "/></g></g></g><g fill="#ffffff" fill-opacity="1"><g transform="translate(333.574247, 197.937196)"><g><path d="M 15.023438 0 L 30.269531 0 L 43.886719 -42.113281 L 31.230469 -42.113281 L 26.050781 -22.722656 C 25.015625 -18.578125 23.90625 -14.210938 22.941406 -9.769531 L 22.574219 -9.769531 C 21.464844 -14.210938 20.425781 -18.578125 19.390625 -22.722656 L 14.285156 -42.113281 L 1.035156 -42.113281 Z M 15.023438 0 "/></g></g></g><g fill="#ffffff" fill-opacity="1"><g transform="translate(378.494629, 197.937196)"><g><path d="M 5.328125 0 L 18.429688 0 L 18.429688 -42.113281 L 5.328125 -42.113281 Z M 11.914062 -47.957031 C 16.28125 -47.957031 19.390625 -50.769531 19.390625 -54.695312 C 19.390625 -58.691406 16.28125 -61.503906 11.914062 -61.503906 C 7.476562 -61.503906 4.367188 -58.691406 4.367188 -54.695312 C 4.367188 -50.769531 7.476562 -47.957031 11.914062 -47.957031 Z M 11.914062 -47.957031 "/></g></g></g><g fill="#ffffff" fill-opacity="1"><g transform="translate(402.249896, 197.937196)"><g><path d="M 24.347656 1.035156 C 29.308594 1.035156 35.082031 -0.667969 39.449219 -3.773438 L 35.082031 -11.695312 C 32.046875 -9.917969 29.234375 -9.027344 26.199219 -9.027344 C 20.871094 -9.027344 16.875 -11.398438 15.691406 -17.171875 L 40.410156 -17.171875 C 40.707031 -18.132812 41 -20.5 41 -22.796875 C 41 -34.339844 35.082031 -43.148438 22.941406 -43.148438 C 12.730469 -43.148438 2.960938 -34.710938 2.960938 -21.019531 C 2.960938 -7.105469 12.285156 1.035156 24.347656 1.035156 Z M 15.46875 -25.753906 C 16.355469 -30.789062 19.539062 -33.082031 23.164062 -33.082031 C 27.976562 -33.082031 29.824219 -29.972656 29.824219 -25.753906 Z M 15.46875 -25.753906 "/></g></g></g><g fill="#ffffff" fill-opacity="1"><g transform="translate(446.356237, 197.937196)"><g><path d="M 12.433594 0 L 27.457031 0 L 30.863281 -16.058594 C 31.601562 -19.984375 32.195312 -23.832031 32.859375 -28.417969 L 33.230469 -28.417969 C 33.96875 -23.832031 34.636719 -19.984375 35.449219 -16.058594 L 39.003906 0 L 54.398438 0 L 64.316406 -42.113281 L 52.101562 -42.113281 L 48.476562 -23.238281 C 47.664062 -19.09375 47.292969 -14.875 46.625 -10.65625 L 46.257812 -10.65625 C 45.367188 -14.875 44.628906 -19.09375 43.664062 -23.238281 L 39.152344 -42.113281 L 27.753906 -42.113281 L 23.460938 -23.238281 C 22.425781 -19.167969 21.757812 -14.875 21.019531 -10.65625 L 20.648438 -10.65625 C 19.984375 -14.875 19.539062 -19.09375 18.871094 -23.238281 L 15.097656 -42.113281 L 2.074219 -42.113281 Z M 12.433594 0 "/></g></g></g><g fill="#ffffff" fill-opacity="1"><g transform="translate(512.73778, 197.937196)"><g><path d="M 24.347656 1.035156 C 29.308594 1.035156 35.082031 -0.667969 39.449219 -3.773438 L 35.082031 -11.695312 C 32.046875 -9.917969 29.234375 -9.027344 26.199219 -9.027344 C 20.871094 -9.027344 16.875 -11.398438 15.691406 -17.171875 L 40.410156 -17.171875 C 40.707031 -18.132812 41 -20.5 41 -22.796875 C 41 -34.339844 35.082031 -43.148438 22.941406 -43.148438 C 12.730469 -43.148438 2.960938 -34.710938 2.960938 -21.019531 C 2.960938 -7.105469 12.285156 1.035156 24.347656 1.035156 Z M 15.46875 -25.753906 C 16.355469 -30.789062 19.539062 -33.082031 23.164062 -33.082031 C 27.976562 -33.082031 29.824219 -29.972656 29.824219 -25.753906 Z M 15.46875 -25.753906 "/></g></g></g><g fill="#ffffff" fill-opacity="1"><g transform="translate(556.844132, 197.937196)"><g><path d="M 5.328125 0 L 18.429688 0 L 18.429688 -24.054688 C 20.648438 -29.605469 24.421875 -31.601562 27.53125 -31.601562 C 29.382812 -31.601562 30.640625 -31.304688 32.121094 -30.9375 L 34.339844 -42.257812 C 33.15625 -42.777344 31.75 -43.148438 29.234375 -43.148438 C 25.015625 -43.148438 20.351562 -40.410156 17.246094 -34.785156 L 16.949219 -34.785156 L 16.058594 -42.113281 L 5.328125 -42.113281 Z M 5.328125 0 "/></g></g></g><g fill="#ffffff" fill-opacity="1"><g transform="translate(145.178387, 201.106749)"><g><path d="M 56.746094 -129.121094 L 73.875 -129.121094 C 92.078125 -129.121094 101.714844 -124.195312 101.714844 -109.207031 C 101.714844 -94.21875 92.078125 -86.296875 73.875 -86.296875 L 56.746094 -86.296875 Z M 147.324219 0 L 111.777344 -63.167969 C 128.265625 -70.878906 139.1875 -85.867188 139.1875 -109.207031 C 139.1875 -147.75 110.921875 -159.316406 76.875 -159.316406 L 18.414062 -159.316406 L 18.414062 0 L 56.746094 0 L 56.746094 -56.101562 L 75.160156 -56.101562 L 104.496094 0 Z M 147.324219 0 "/></g></g></g><g fill="#ffffff" fill-opacity="1"><g transform="translate(289.467907, 97.598377)"><g><path d="M 24.347656 1.035156 C 29.308594 1.035156 35.082031 -0.667969 39.449219 -3.773438 L 35.082031 -11.695312 C 32.046875 -9.917969 29.234375 -9.027344 26.199219 -9.027344 C 20.871094 -9.027344 16.875 -11.398438 15.691406 -17.171875 L 40.410156 -17.171875 C 40.707031 -18.132812 41 -20.5 41 -22.796875 C 41 -34.339844 35.082031 -43.148438 22.941406 -43.148438 C 12.730469 -43.148438 2.960938 -34.710938 2.960938 -21.019531 C 2.960938 -7.105469 12.285156 1.035156 24.347656 1.035156 Z M 15.46875 -25.753906 C 16.355469 -30.789062 19.539062 -33.082031 23.164062 -33.082031 C 27.976562 -33.082031 29.824219 -29.972656 29.824219 -25.753906 Z M 15.46875 -25.753906 "/></g></g></g><g fill="#ffffff" fill-opacity="1"><g transform="translate(333.574247, 97.598377)"><g><path d="M 17.910156 1.035156 C 29.382812 1.035156 35.449219 -4.957031 35.449219 -12.730469 C 35.449219 -20.351562 29.605469 -23.386719 24.347656 -25.386719 C 19.984375 -26.941406 16.132812 -27.902344 16.132812 -30.417969 C 16.132812 -32.417969 17.613281 -33.453125 20.574219 -33.453125 C 23.386719 -33.453125 26.347656 -31.972656 29.308594 -29.898438 L 35.230469 -37.746094 C 31.527344 -40.484375 26.792969 -43.148438 20.128906 -43.148438 C 10.363281 -43.148438 3.847656 -37.746094 3.847656 -29.753906 C 3.847656 -22.796875 9.769531 -19.390625 14.800781 -17.390625 C 19.09375 -15.691406 23.164062 -14.507812 23.164062 -11.988281 C 23.164062 -9.917969 21.683594 -8.660156 18.207031 -8.660156 C 14.875 -8.660156 11.398438 -10.140625 7.550781 -13.101562 L 1.703125 -4.882812 C 5.921875 -1.332031 12.433594 1.035156 17.910156 1.035156 Z M 17.910156 1.035156 "/></g></g></g><g fill="#ffffff" fill-opacity="1"><g transform="translate(371.316254, 97.598377)"><g><path d="M 17.984375 1.035156 C 23.757812 1.035156 27.679688 -1.628906 31.160156 -5.773438 L 31.453125 -5.773438 L 32.417969 0 L 43.148438 0 L 43.148438 -42.113281 L 29.972656 -42.113281 L 29.972656 -14.507812 C 27.753906 -11.398438 25.902344 -10.214844 22.941406 -10.214844 C 19.613281 -10.214844 18.058594 -11.839844 18.058594 -17.6875 L 18.058594 -42.113281 L 4.882812 -42.113281 L 4.882812 -16.058594 C 4.882812 -5.550781 8.808594 1.035156 17.984375 1.035156 Z M 17.984375 1.035156 "/></g></g></g><g fill="#ffffff" fill-opacity="1"><g transform="translate(419.714827, 97.598377)"><g><path d="M 5.328125 0 L 18.429688 0 L 18.429688 -28.125 C 20.945312 -30.714844 23.238281 -31.898438 25.164062 -31.898438 C 28.492188 -31.898438 29.972656 -30.195312 29.972656 -24.421875 L 29.972656 0 L 43.222656 0 L 43.222656 -28.125 C 45.738281 -30.714844 48.03125 -31.898438 49.957031 -31.898438 C 53.289062 -31.898438 54.765625 -30.195312 54.765625 -24.421875 L 54.765625 0 L 67.941406 0 L 67.941406 -26.050781 C 67.941406 -36.5625 63.945312 -43.148438 54.765625 -43.148438 C 49.144531 -43.148438 45.21875 -39.890625 41.59375 -36.191406 C 39.449219 -40.707031 35.894531 -43.148438 30.046875 -43.148438 C 24.347656 -43.148438 20.722656 -40.261719 17.246094 -36.78125 L 16.949219 -36.78125 L 16.058594 -42.113281 L 5.328125 -42.113281 Z M 5.328125 0 "/></g></g></g><g fill="#ffffff" fill-opacity="1"><g transform="translate(492.608699, 97.598377)"><g><path d="M 24.347656 1.035156 C 29.308594 1.035156 35.082031 -0.667969 39.449219 -3.773438 L 35.082031 -11.695312 C 32.046875 -9.917969 29.234375 -9.027344 26.199219 -9.027344 C 20.871094 -9.027344 16.875 -11.398438 15.691406 -17.171875 L 40.410156 -17.171875 C 40.707031 -18.132812 41 -20.5 41 -22.796875 C 41 -34.339844 35.082031 -43.148438 22.941406 -43.148438 C 12.730469 -43.148438 2.960938 -34.710938 2.960938 -21.019531 C 2.960938 -7.105469 12.285156 1.035156 24.347656 1.035156 Z M 15.46875 -25.753906 C 16.355469 -30.789062 19.539062 -33.082031 23.164062 -33.082031 C 27.976562 -33.082031 29.824219 -29.972656 29.824219 -25.753906 Z M 15.46875 -25.753906 "/></g></g></g></svg>