<svg xmlns="http://www.w3.org/2000/svg" xmlns:xlink="http://www.w3.org/1999/xlink" width="800" zoomAndPan="magnify" viewBox="0 0 600 225" height="300" preserveAspectRatio="xMidYMid meet" version="1.0"><defs><g/><clipPath id="81f7017cb4"><path d="M 0 21.113281 L 152.25 21.113281 L 152.25 211.613281 L 0 211.613281 Z M 0 21.113281 " clip-rule="nonzero"/></clipPath><clipPath id="e0370e7b75"><path d="M 3 49 L 129 49 L 129 211.613281 L 3 211.613281 Z M 3 49 " clip-rule="nonzero"/></clipPath><clipPath id="feac8cd633"><path d="M 23 21.113281 L 108 21.113281 L 108 170 L 23 170 Z M 23 21.113281 " clip-rule="nonzero"/></clipPath><clipPath id="887d62e30d"><path d="M 36 27 L 152.25 27 L 152.25 211.613281 L 36 211.613281 Z M 36 27 " clip-rule="nonzero"/></clipPath></defs><g clip-path="url(#81f7017cb4)"><path fill="#fbeeec" d="M 129.195312 123.105469 L 109.675781 123.105469 C 117.054688 121.652344 113.886719 107.734375 113.886719 107.734375 L 114.003906 107.734375 C 114.003906 107.734375 114.085938 105.761719 114.15625 102.722656 C 119.113281 102.4375 123.671875 100.984375 123.773438 96.4375 C 123.878906 91.675781 122.921875 75.511719 118.910156 69.054688 C 117.914062 67.449219 115.59375 66.050781 113.167969 64.953125 C 110.789062 57.632812 107.691406 49.027344 105.625 46.714844 C 101.859375 42.496094 94.78125 44.269531 92.148438 47.46875 C 90.175781 49.863281 90.382812 52.574219 90.316406 57.035156 C 90.289062 58.808594 90.144531 63.878906 90.007812 68.503906 C 88.8125 69.4375 87.773438 70.550781 87.140625 71.859375 C 84.617188 77.078125 83.589844 93.414062 83.589844 93.414062 L 75.0625 94.480469 L 71.144531 82.902344 C 70.933594 82.269531 70.339844 81.847656 69.675781 81.847656 L 37.585938 81.847656 C 37 81.847656 36.585938 82.421875 36.773438 82.976562 L 43.679688 103.398438 C 43.894531 104.03125 44.484375 104.453125 45.152344 104.453125 L 42.296875 104.453125 C 41.523438 104.453125 40.84375 104.976562 40.648438 105.730469 L 36.078125 123.105469 L 23.0625 123.105469 L 18.535156 140.480469 L 14.917969 154.371094 L 14.84375 154.371094 C 14.691406 154.371094 14.5625 154.496094 14.5625 154.652344 C 14.5625 154.785156 14.65625 154.890625 14.777344 154.921875 L 11.226562 168.546875 L 11.152344 168.546875 C 11 168.546875 10.871094 168.671875 10.871094 168.828125 C 10.871094 168.957031 10.964844 169.0625 11.085938 169.09375 L 7.535156 182.71875 L 7.460938 182.71875 C 7.308594 182.71875 7.179688 182.84375 7.179688 183 C 7.179688 183.128906 7.273438 183.234375 7.394531 183.265625 L 3.84375 196.890625 L 3.769531 196.890625 C 3.617188 196.890625 3.488281 197.015625 3.488281 197.171875 C 3.488281 197.300781 3.582031 197.40625 3.703125 197.4375 L 0.078125 211.34375 L 14.933594 211.34375 C 14.933594 211.46875 15.011719 211.582031 15.136719 211.617188 C 15.160156 211.621094 15.183594 211.625 15.207031 211.625 C 15.332031 211.625 15.445312 211.542969 15.480469 211.414062 L 15.5 211.34375 L 30.0625 211.34375 C 30.0625 211.46875 30.140625 211.582031 30.265625 211.617188 C 30.289062 211.621094 30.3125 211.625 30.335938 211.625 C 30.460938 211.625 30.574219 211.542969 30.609375 211.414062 L 30.628906 211.34375 L 45.191406 211.34375 C 45.191406 211.46875 45.269531 211.582031 45.394531 211.617188 C 45.417969 211.621094 45.441406 211.625 45.464844 211.625 C 45.589844 211.625 45.703125 211.542969 45.738281 211.414062 L 45.757812 211.34375 L 60.320312 211.34375 C 60.320312 211.46875 60.398438 211.585938 60.523438 211.617188 C 60.546875 211.625 60.570312 211.625 60.59375 211.625 C 60.71875 211.625 60.832031 211.542969 60.867188 211.417969 L 60.886719 211.34375 L 75.449219 211.34375 C 75.449219 211.46875 75.527344 211.585938 75.652344 211.617188 C 75.675781 211.625 75.699219 211.625 75.722656 211.625 C 75.847656 211.625 75.960938 211.542969 75.996094 211.417969 L 76.011719 211.347656 L 152.175781 211.347656 Z M 87.503906 106.394531 L 87.945312 108.074219 C 80.136719 108.714844 63.953125 110.246094 54.828125 112.558594 L 56.449219 106.394531 Z M 23.035156 43.550781 C 23.035156 31.179688 33.097656 21.113281 45.464844 21.113281 C 57.832031 21.113281 67.894531 31.179688 67.894531 43.550781 C 67.894531 55.925781 57.832031 65.992188 45.464844 65.992188 C 33.097656 65.992188 23.035156 55.925781 23.035156 43.550781 Z M 23.035156 43.550781 " fill-opacity="1" fill-rule="nonzero"/></g><g clip-path="url(#e0370e7b75)"><path fill="#f9684f" d="M 18.535156 140.480469 L 23.0625 123.105469 L 36.082031 123.105469 L 36.046875 123.238281 L 48.152344 123.238281 C 48.363281 128.210938 48.871094 134.660156 49.390625 140.480469 L 49.070312 140.480469 C 49.070312 140.355469 48.992188 140.242188 48.863281 140.210938 C 48.714844 140.167969 48.5625 140.261719 48.523438 140.410156 L 48.503906 140.480469 L 33.941406 140.480469 C 33.941406 140.355469 33.863281 140.242188 33.734375 140.210938 C 33.585938 140.167969 33.433594 140.261719 33.394531 140.410156 L 33.375 140.480469 Z M 63.652344 140.410156 C 63.691406 140.261719 63.84375 140.167969 63.992188 140.210938 C 64.121094 140.242188 64.199219 140.355469 64.199219 140.480469 L 67.460938 140.480469 C 66.988281 135.261719 66.507812 129.394531 66.230469 124.46875 C 62.796875 124.667969 60.171875 124.542969 60.171875 124.542969 C 60.171875 124.542969 60.164062 127.097656 59.953125 132.707031 C 59.894531 134.308594 59.707031 137.242188 59.484375 140.480469 L 63.632812 140.480469 Z M 108.363281 123.238281 C 108.226562 123.238281 108.070312 123.238281 107.90625 123.238281 C 107.765625 123.238281 107.621094 123.238281 107.46875 123.238281 C 100.585938 123.238281 78.125 123.238281 78.125 123.238281 C 78.125 123.238281 78.117188 125.796875 77.90625 131.40625 C 77.835938 133.21875 77.609375 136.742188 77.34375 140.480469 L 78.761719 140.480469 L 78.78125 140.410156 C 78.816406 140.261719 78.96875 140.167969 79.121094 140.210938 C 79.25 140.242188 79.328125 140.355469 79.328125 140.480469 L 93.890625 140.480469 L 93.90625 140.410156 C 93.945312 140.261719 94.097656 140.167969 94.25 140.210938 C 94.375 140.242188 94.457031 140.355469 94.457031 140.480469 L 108.902344 140.480469 L 109.035156 139.96875 C 109.074219 139.820312 109.226562 139.726562 109.378906 139.769531 C 109.527344 139.808594 109.621094 139.960938 109.578125 140.109375 L 109.484375 140.480469 L 124.4375 140.480469 L 128.960938 123.105469 L 109.675781 123.105469 C 109.269531 123.1875 108.839844 123.238281 108.363281 123.238281 Z M 22.226562 183.28125 L 18.683594 196.890625 L 19.261719 196.890625 L 22.808594 183.28125 Z M 29.609375 154.933594 L 26.066406 168.542969 L 26.644531 168.542969 L 30.191406 154.933594 Z M 18.535156 197.453125 L 14.9375 211.273438 C 14.929688 211.296875 14.933594 211.320312 14.933594 211.34375 C 14.933594 211.46875 15.011719 211.582031 15.136719 211.617188 C 15.160156 211.621094 15.183594 211.625 15.207031 211.625 C 15.332031 211.625 15.445312 211.542969 15.480469 211.414062 L 15.5 211.34375 L 19.117188 197.453125 Z M 25.917969 169.105469 L 22.375 182.71875 L 22.953125 182.71875 L 26.5 169.105469 Z M 33.9375 140.550781 C 33.941406 140.527344 33.941406 140.503906 33.941406 140.480469 C 33.941406 140.355469 33.863281 140.242188 33.734375 140.207031 C 33.585938 140.167969 33.433594 140.257812 33.394531 140.410156 L 33.375 140.480469 L 29.757812 154.371094 L 30.335938 154.371094 Z M 33.664062 197.453125 L 30.066406 211.273438 C 30.058594 211.296875 30.0625 211.320312 30.0625 211.34375 C 30.0625 211.46875 30.140625 211.582031 30.265625 211.617188 C 30.289062 211.621094 30.3125 211.625 30.335938 211.625 C 30.460938 211.625 30.574219 211.542969 30.609375 211.414062 L 30.628906 211.34375 L 34.246094 197.453125 Z M 37.355469 183.28125 L 33.8125 196.890625 L 34.390625 196.890625 L 37.9375 183.28125 Z M 41.507812 169.570312 C 41.433594 169.503906 41.367188 169.425781 41.324219 169.324219 L 41.238281 169.105469 L 41.046875 169.105469 L 37.503906 182.71875 L 38.082031 182.71875 Z M 49.070312 140.480469 C 49.070312 140.355469 48.992188 140.242188 48.863281 140.210938 C 48.714844 140.167969 48.5625 140.261719 48.523438 140.410156 L 48.503906 140.480469 L 44.886719 154.371094 L 45.464844 154.371094 L 49.066406 140.550781 C 49.070312 140.527344 49.070312 140.503906 49.070312 140.480469 Z M 41.617188 167.003906 L 42.296875 166.53125 L 45.320312 154.933594 L 44.738281 154.933594 L 41.589844 167.023438 C 41.601562 167.019531 41.609375 167.007812 41.617188 167.003906 Z M 49.375 197.453125 L 48.792969 197.453125 L 45.195312 211.273438 C 45.1875 211.296875 45.191406 211.320312 45.191406 211.34375 C 45.191406 211.46875 45.269531 211.582031 45.394531 211.617188 C 45.417969 211.621094 45.441406 211.625 45.464844 211.625 C 45.589844 211.625 45.703125 211.542969 45.738281 211.414062 L 45.753906 211.34375 Z M 52.484375 183.28125 L 48.941406 196.890625 L 49.519531 196.890625 L 53.066406 183.28125 Z M 56.902344 168.546875 L 58.691406 161.675781 L 58.042969 161.945312 L 56.324219 168.546875 Z M 59.867188 154.933594 L 59.296875 157.128906 C 59.4375 157.398438 59.558594 157.664062 59.667969 157.925781 L 60.449219 154.933594 Z M 64.199219 140.480469 C 64.199219 140.355469 64.121094 140.242188 63.992188 140.210938 C 63.84375 140.167969 63.691406 140.261719 63.652344 140.410156 L 63.632812 140.480469 L 60.015625 154.371094 L 60.59375 154.371094 L 64.195312 140.550781 C 64.199219 140.527344 64.199219 140.503906 64.199219 140.480469 Z M 56.175781 169.105469 L 52.632812 182.71875 L 53.210938 182.71875 L 56.757812 169.105469 Z M 73.753906 161.574219 L 73.042969 162.433594 L 71.453125 168.542969 L 72.03125 168.542969 L 73.859375 161.53125 Z M 76.550781 151.195312 L 79.324219 140.550781 C 79.328125 140.527344 79.328125 140.503906 79.328125 140.480469 C 79.328125 140.355469 79.25 140.242188 79.121094 140.207031 C 78.96875 140.167969 78.820312 140.257812 78.78125 140.410156 L 78.761719 140.480469 L 76.789062 148.050781 C 76.703125 149.21875 76.621094 150.289062 76.550781 151.195312 Z M 67.613281 183.28125 L 64.070312 196.890625 L 64.648438 196.890625 L 68.195312 183.28125 Z M 63.921875 197.453125 L 60.324219 211.273438 C 60.316406 211.296875 60.320312 211.320312 60.320312 211.34375 C 60.320312 211.46875 60.398438 211.582031 60.523438 211.617188 C 60.546875 211.621094 60.570312 211.625 60.59375 211.625 C 60.71875 211.625 60.832031 211.542969 60.867188 211.414062 L 60.882812 211.34375 L 64.503906 197.453125 Z M 71.304688 169.105469 L 67.761719 182.71875 L 68.339844 182.71875 L 71.886719 169.105469 Z M 87.160156 168.546875 L 90.707031 154.933594 L 90.125 154.933594 L 86.578125 168.546875 Z M 79.050781 197.453125 L 75.453125 211.273438 C 75.445312 211.296875 75.445312 211.320312 75.445312 211.34375 C 75.445312 211.46875 75.527344 211.582031 75.652344 211.617188 C 75.675781 211.621094 75.699219 211.625 75.722656 211.625 C 75.847656 211.625 75.960938 211.542969 75.996094 211.414062 L 76.011719 211.34375 L 79.632812 197.453125 Z M 90.851562 154.371094 L 94.453125 140.550781 C 94.457031 140.527344 94.457031 140.503906 94.457031 140.480469 C 94.457031 140.355469 94.378906 140.242188 94.25 140.207031 C 94.097656 140.167969 93.945312 140.257812 93.910156 140.410156 L 93.890625 140.480469 L 90.273438 154.371094 Z M 86.433594 169.105469 L 82.890625 182.71875 L 83.46875 182.71875 L 87.015625 169.105469 Z M 82.742188 183.28125 L 79.195312 196.890625 L 79.777344 196.890625 L 83.324219 183.28125 Z M 105.867188 154.371094 L 109.484375 140.480469 L 109.578125 140.109375 C 109.617188 139.960938 109.527344 139.808594 109.378906 139.769531 C 109.226562 139.726562 109.074219 139.820312 109.035156 139.96875 L 108.902344 140.480469 L 105.285156 154.371094 Z M 102.175781 168.546875 L 105.71875 154.933594 L 105.140625 154.933594 L 101.59375 168.546875 Z M 90.582031 210.832031 C 90.539062 210.984375 90.632812 211.136719 90.78125 211.175781 C 90.804688 211.183594 90.828125 211.183594 90.851562 211.183594 C 90.976562 211.183594 91.089844 211.101562 91.125 210.976562 L 94.644531 197.453125 L 94.066406 197.453125 Z M 97.757812 183.28125 L 94.210938 196.890625 L 94.792969 196.890625 L 98.335938 183.28125 Z M 101.449219 169.105469 L 97.902344 182.71875 L 98.484375 182.71875 L 102.027344 169.105469 Z M 29.609375 154.933594 L 50.804688 154.933594 C 50.785156 154.777344 50.765625 154.59375 50.742188 154.371094 L 14.84375 154.371094 C 14.691406 154.371094 14.5625 154.496094 14.5625 154.652344 C 14.5625 154.785156 14.65625 154.890625 14.773438 154.921875 C 14.796875 154.925781 14.820312 154.933594 14.84375 154.933594 Z M 90.851562 154.371094 L 76.308594 154.371094 C 76.453125 154.558594 76.589844 154.746094 76.714844 154.933594 L 120.566406 154.933594 C 120.605469 154.933594 120.644531 154.925781 120.679688 154.910156 C 120.777344 154.867188 120.847656 154.769531 120.847656 154.652344 C 120.847656 154.589844 120.824219 154.535156 120.789062 154.488281 C 120.738281 154.421875 120.660156 154.371094 120.566406 154.371094 Z M 60.449219 154.933594 L 68.410156 154.933594 L 68.703125 154.371094 L 58.453125 154.371094 C 58.4375 154.589844 58.421875 154.777344 58.410156 154.933594 Z M 25.917969 169.105469 L 41.238281 169.105469 L 41.09375 168.753906 C 41.066406 168.6875 41.046875 168.617188 41.027344 168.546875 L 11.152344 168.546875 C 11 168.546875 10.871094 168.671875 10.871094 168.828125 C 10.871094 168.957031 10.964844 169.0625 11.085938 169.09375 C 11.105469 169.097656 11.128906 169.109375 11.152344 169.109375 L 25.917969 169.109375 Z M 102.175781 168.546875 L 45.046875 168.546875 L 43.664062 169.105469 L 117.054688 169.105469 C 117.210938 169.105469 117.335938 168.980469 117.335938 168.828125 C 117.335938 168.695312 117.246094 168.589844 117.125 168.558594 C 117.101562 168.554688 117.078125 168.546875 117.054688 168.546875 Z M 22.226562 183.28125 L 113.363281 183.28125 C 113.519531 183.28125 113.644531 183.15625 113.644531 183 C 113.644531 182.867188 113.554688 182.765625 113.433594 182.730469 C 113.410156 182.726562 113.386719 182.71875 113.363281 182.71875 L 7.460938 182.71875 C 7.308594 182.71875 7.179688 182.84375 7.179688 183 C 7.179688 183.128906 7.273438 183.234375 7.394531 183.265625 C 7.414062 183.273438 7.4375 183.28125 7.460938 183.28125 Z M 18.535156 197.453125 L 109.671875 197.453125 C 109.828125 197.453125 109.953125 197.328125 109.953125 197.171875 C 109.953125 197.039062 109.863281 196.9375 109.742188 196.90625 C 109.71875 196.898438 109.695312 196.890625 109.671875 196.890625 L 3.769531 196.890625 C 3.617188 196.890625 3.488281 197.015625 3.488281 197.171875 C 3.488281 197.300781 3.582031 197.40625 3.703125 197.4375 C 3.722656 197.445312 3.746094 197.453125 3.769531 197.453125 Z M 105.589844 62.308594 L 104.597656 58.863281 L 102.410156 55.542969 C 102.773438 55.207031 103.097656 54.753906 103.308594 54.136719 C 103.726562 52.910156 103.003906 51.164062 101.136719 51.484375 C 100.042969 51.675781 99.371094 52.347656 99 52.875 C 99 52.875 98.078125 52.066406 96.484375 49.5625 L 96.84375 51.484375 L 95.125 51.796875 L 92.355469 52.300781 C 92.382812 52.457031 92.410156 52.613281 92.429688 52.746094 C 92.539062 53.453125 91.722656 54.453125 91.019531 55.125 C 90.621094 55.507812 90.792969 56.195312 91.265625 56.480469 L 91.917969 56.902344 C 92.28125 57.140625 92.53125 57.519531 92.605469 57.953125 L 92.722656 58.632812 L 92.992188 60.199219 C 93.113281 60.910156 93.742188 61.425781 94.464844 61.402344 L 96.292969 61.253906 C 97.019531 61.191406 97.691406 61.644531 97.914062 62.339844 L 98.605469 64.519531 Z M 82.402344 101.375 C 83.828125 102.546875 85.710938 103.007812 87.511719 102.617188 L 91.59375 101.738281 L 90.25 96.597656 L 83.488281 96.1875 C 82.738281 96.097656 81.988281 96.332031 81.421875 96.832031 L 77.132812 100.601562 L 77.789062 102.546875 L 81.347656 100.503906 Z M 58.960938 93.152344 C 58.960938 91.863281 57.917969 90.820312 56.632812 90.820312 C 55.34375 90.820312 54.304688 91.863281 54.304688 93.152344 C 54.304688 94.4375 55.34375 95.480469 56.632812 95.480469 C 57.917969 95.480469 58.960938 94.4375 58.960938 93.152344 Z M 58.960938 93.152344 " fill-opacity="1" fill-rule="nonzero"/></g><path fill="#0496ff" d="M 123.773438 96.4375 C 123.671875 100.984375 119.113281 102.4375 114.15625 102.722656 C 114.085938 105.761719 114.003906 107.734375 114.003906 107.734375 L 103.832031 107.734375 L 103.304688 105.730469 C 103.105469 104.980469 102.429688 104.457031 101.652344 104.457031 L 96.199219 104.457031 C 96.667969 104.457031 97.046875 104.074219 97.046875 103.609375 C 97.046875 103.21875 96.785156 102.894531 96.429688 102.796875 C 93.75 102.777344 91.859375 102.761719 91.859375 102.761719 L 77.859375 102.761719 L 77.789062 102.546875 L 81.347656 100.503906 L 82.402344 101.375 C 83.828125 102.550781 85.710938 103.007812 87.511719 102.617188 L 91.59375 101.738281 L 90.25 96.597656 L 83.484375 96.1875 C 82.738281 96.097656 81.984375 96.332031 81.417969 96.832031 L 77.132812 100.601562 L 75.0625 94.484375 L 83.589844 93.414062 C 83.589844 93.414062 84.617188 77.078125 87.140625 71.859375 C 87.773438 70.550781 88.8125 69.4375 90.007812 68.503906 C 93.585938 65.710938 98.605469 64.519531 98.605469 64.519531 L 105.589844 62.308594 C 105.589844 62.308594 109.503906 63.292969 113.167969 64.953125 C 115.59375 66.050781 117.914062 67.449219 118.910156 69.058594 C 122.921875 75.511719 123.878906 91.675781 123.773438 96.4375 Z M 123.773438 96.4375 " fill-opacity="1" fill-rule="nonzero"/><g clip-path="url(#feac8cd633)"><path fill="#ffde59" d="M 76.714844 154.933594 C 78.214844 157.175781 78.445312 159.628906 78.445312 159.628906 L 73.859375 161.53125 L 73.753906 161.574219 L 73.042969 162.433594 L 72.742188 162.792969 C 72.347656 163.273438 71.839844 163.644531 71.265625 163.878906 L 60.164062 168.398438 C 59.816406 168.539062 59.421875 168.371094 59.277344 168.023438 L 59.046875 167.453125 C 58.789062 166.820312 59.007812 166.089844 59.570312 165.699219 L 63.257812 163.15625 C 63.996094 162.648438 64.621094 161.996094 65.101562 161.238281 L 68.410156 154.933594 L 68.703125 154.371094 L 68.8125 154.164062 L 76.140625 154.164062 C 76.199219 154.234375 76.253906 154.300781 76.308594 154.371094 C 76.453125 154.558594 76.589844 154.746094 76.714844 154.933594 Z M 59.667969 157.925781 C 59.558594 157.664062 59.4375 157.398438 59.296875 157.128906 C 59.003906 156.570312 58.636719 156.003906 58.1875 155.464844 L 50.859375 155.464844 L 47.148438 162.539062 C 46.667969 163.296875 46.042969 163.949219 45.304688 164.457031 L 42.296875 166.53125 L 41.617188 167.003906 C 41.609375 167.007812 41.597656 167.019531 41.589844 167.023438 C 41.109375 167.375 40.894531 167.976562 41.03125 168.542969 C 41.046875 168.617188 41.066406 168.6875 41.09375 168.753906 L 41.238281 169.105469 L 41.328125 169.324219 C 41.367188 169.425781 41.433594 169.503906 41.507812 169.570312 C 41.695312 169.738281 41.964844 169.800781 42.210938 169.699219 L 43.664062 169.105469 L 45.046875 168.542969 L 53.3125 165.179688 C 53.886719 164.945312 54.394531 164.574219 54.792969 164.097656 L 55.800781 162.878906 L 58.042969 161.945312 L 58.691406 161.675781 L 60.492188 160.929688 C 60.492188 160.929688 60.359375 159.554688 59.667969 157.925781 Z M 103.832031 107.734375 L 103.304688 105.730469 C 103.109375 104.980469 102.429688 104.457031 101.652344 104.457031 L 42.296875 104.457031 C 41.523438 104.457031 40.84375 104.980469 40.648438 105.730469 L 36.082031 123.105469 L 36.046875 123.238281 L 48.152344 123.238281 C 48.011719 119.925781 48.003906 117.269531 48.207031 115.890625 C 48.390625 114.644531 50.984375 113.535156 54.828125 112.558594 L 56.445312 106.398438 L 87.503906 106.398438 L 87.945312 108.074219 L 91.070312 119.964844 L 91.929688 123.238281 L 107.46875 123.238281 C 107.621094 123.238281 107.765625 123.238281 107.90625 123.238281 Z M 45.464844 65.992188 C 33.097656 65.992188 23.035156 55.925781 23.035156 43.550781 C 23.035156 31.179688 33.097656 21.113281 45.464844 21.113281 C 57.832031 21.113281 67.894531 31.179688 67.894531 43.550781 C 67.894531 55.925781 57.832031 65.992188 45.464844 65.992188 Z M 45.464844 61.292969 C 55.257812 61.292969 63.195312 53.347656 63.195312 43.550781 C 63.195312 33.753906 55.257812 25.8125 45.464844 25.8125 C 35.675781 25.8125 27.738281 33.753906 27.738281 43.550781 C 27.738281 53.347656 35.675781 61.292969 45.464844 61.292969 Z M 45.464844 61.292969 " fill-opacity="1" fill-rule="nonzero"/></g><g clip-path="url(#887d62e30d)"><path fill="#545454" d="M 152.175781 211.34375 L 105.980469 211.34375 L 109.597656 197.453125 L 109.671875 197.453125 C 109.828125 197.453125 109.953125 197.328125 109.953125 197.171875 C 109.953125 197.039062 109.863281 196.9375 109.742188 196.90625 L 113.289062 183.28125 L 113.363281 183.28125 C 113.519531 183.28125 113.644531 183.152344 113.644531 183 C 113.644531 182.867188 113.554688 182.761719 113.433594 182.730469 L 116.980469 169.105469 L 117.054688 169.105469 C 117.210938 169.105469 117.335938 168.980469 117.335938 168.824219 C 117.335938 168.695312 117.246094 168.589844 117.125 168.558594 L 120.679688 154.910156 C 120.777344 154.867188 120.847656 154.769531 120.847656 154.652344 C 120.847656 154.589844 120.824219 154.535156 120.789062 154.488281 L 128.960938 123.105469 L 129.195312 123.105469 Z M 97.914062 62.339844 C 97.691406 61.644531 97.019531 61.191406 96.292969 61.253906 L 94.464844 61.402344 C 93.742188 61.425781 93.113281 60.910156 92.992188 60.199219 L 92.722656 58.632812 L 92.605469 57.953125 C 92.53125 57.519531 92.28125 57.140625 91.917969 56.902344 L 91.265625 56.480469 C 90.792969 56.195312 90.621094 55.507812 91.019531 55.125 C 91.722656 54.453125 92.539062 53.453125 92.429688 52.746094 C 92.410156 52.613281 92.382812 52.457031 92.355469 52.300781 L 95.125 51.796875 L 96.84375 51.484375 L 96.484375 49.5625 C 98.078125 52.066406 99 52.875 99 52.875 C 99.371094 52.347656 100.039062 51.675781 101.136719 51.484375 C 103.003906 51.164062 103.726562 52.910156 103.308594 54.136719 C 103.097656 54.753906 102.769531 55.207031 102.410156 55.542969 L 104.597656 58.863281 L 105.589844 62.308594 C 105.589844 62.308594 109.503906 63.289062 113.167969 64.953125 C 110.785156 57.632812 107.6875 49.027344 105.625 46.714844 C 101.859375 42.5 94.78125 44.269531 92.148438 47.46875 C 90.175781 49.863281 90.382812 52.578125 90.316406 57.035156 C 90.289062 58.808594 90.144531 63.878906 90.007812 68.503906 C 93.585938 65.710938 98.605469 64.519531 98.605469 64.519531 Z M 107.90625 123.238281 C 108.070312 123.238281 108.226562 123.238281 108.363281 123.238281 C 108.839844 123.238281 109.269531 123.1875 109.675781 123.105469 C 117.054688 121.652344 113.886719 107.734375 113.886719 107.734375 L 103.832031 107.734375 Z M 91.929688 123.238281 L 91.070312 119.964844 L 87.945312 108.074219 C 80.136719 108.714844 63.953125 110.246094 54.828125 112.558594 C 50.984375 113.535156 48.394531 114.644531 48.207031 115.890625 C 48.003906 117.269531 48.011719 119.925781 48.152344 123.238281 C 48.367188 128.210938 48.875 134.660156 49.394531 140.480469 C 49.945312 146.65625 50.507812 152.121094 50.742188 154.371094 C 50.765625 154.59375 50.785156 154.777344 50.804688 154.933594 C 50.839844 155.277344 50.859375 155.46875 50.859375 155.46875 L 58.367188 155.46875 C 58.367188 155.46875 58.382812 155.273438 58.410156 154.933594 C 58.421875 154.777344 58.4375 154.589844 58.453125 154.371094 C 58.644531 151.925781 59.113281 145.796875 59.484375 140.480469 C 59.707031 137.242188 59.894531 134.308594 59.953125 132.707031 C 60.164062 127.101562 60.171875 124.542969 60.171875 124.542969 C 60.171875 124.542969 62.796875 124.667969 66.230469 124.46875 C 66.507812 129.394531 66.988281 135.261719 67.460938 140.480469 C 68.144531 148.003906 68.8125 154.164062 68.8125 154.164062 L 76.320312 154.164062 C 76.320312 154.164062 76.410156 153.003906 76.550781 151.195312 C 76.621094 150.289062 76.703125 149.21875 76.789062 148.050781 C 76.964844 145.746094 77.160156 143.0625 77.34375 140.480469 C 77.609375 136.742188 77.835938 133.21875 77.90625 131.40625 C 78.117188 125.796875 78.125 123.238281 78.125 123.238281 C 78.125 123.238281 99.890625 123.238281 107.132812 123.238281 Z M 45.746094 41.707031 L 45.746094 27.980469 C 45.746094 27.824219 45.621094 27.699219 45.464844 27.699219 C 45.3125 27.699219 45.183594 27.824219 45.183594 27.980469 L 45.183594 41.707031 C 44.285156 41.84375 43.59375 42.613281 43.59375 43.550781 C 43.59375 43.808594 43.644531 44.054688 43.738281 44.277344 L 36.558594 48.019531 C 36.421875 48.09375 36.367188 48.261719 36.441406 48.398438 C 36.488281 48.496094 36.585938 48.550781 36.6875 48.550781 C 36.734375 48.550781 36.777344 48.539062 36.820312 48.519531 L 44.039062 44.753906 C 44.382812 45.160156 44.890625 45.425781 45.464844 45.425781 C 46.5 45.425781 47.335938 44.585938 47.335938 43.550781 C 47.335938 42.613281 46.644531 41.84375 45.746094 41.707031 Z M 45.746094 41.707031 " fill-opacity="1" fill-rule="nonzero"/></g><g fill="#ffffff" fill-opacity="1"><g transform="translate(167.981991, 204.500027)"><g><path d="M 38.378906 -62.507812 C 38.378906 -68.964844 36.953125 -73.90625 34.199219 -77.515625 C 31.347656 -81.03125 27.261719 -82.835938 21.753906 -82.835938 C 16.148438 -82.835938 11.96875 -81.03125 9.214844 -77.515625 C 6.363281 -73.90625 5.035156 -68.964844 5.035156 -62.507812 C 5.035156 -60.132812 5.226562 -57.945312 5.605469 -55.855469 C 5.984375 -53.765625 6.746094 -51.773438 7.695312 -49.777344 C 8.644531 -47.78125 9.972656 -45.789062 11.589844 -43.699219 C 13.109375 -41.609375 15.105469 -39.421875 17.480469 -37.144531 C 19.285156 -35.242188 20.804688 -33.628906 22.039062 -32.109375 C 23.273438 -30.589844 24.320312 -29.164062 25.078125 -27.832031 C 25.839844 -26.410156 26.3125 -25.078125 26.695312 -23.75 C 26.980469 -22.417969 27.167969 -20.992188 27.167969 -19.570312 C 27.167969 -16.625 26.597656 -14.535156 25.554688 -13.394531 C 24.507812 -12.160156 23.082031 -11.589844 21.277344 -11.589844 C 19.378906 -11.589844 17.953125 -12.160156 17.003906 -13.394531 C 15.960938 -14.535156 15.484375 -16.625 15.484375 -19.570312 L 15.484375 -22.796875 C 15.484375 -23.464844 15.199219 -24.035156 14.820312 -24.507812 C 14.34375 -24.984375 13.871094 -25.269531 13.300781 -25.269531 L 6.839844 -25.269531 C 6.269531 -25.269531 5.699219 -24.984375 5.320312 -24.507812 C 4.941406 -24.035156 4.75 -23.464844 4.75 -22.796875 L 4.75 -20.328125 C 4.75 -13.773438 6.175781 -8.738281 9.023438 -5.226562 C 11.875 -1.710938 16.054688 0 21.660156 0 C 27.167969 0 31.347656 -1.710938 34.199219 -5.226562 C 37.046875 -8.738281 38.472656 -13.773438 38.472656 -20.328125 C 38.472656 -22.609375 38.1875 -24.792969 37.808594 -26.882812 C 37.429688 -28.972656 36.761719 -30.96875 35.8125 -32.964844 C 34.863281 -34.957031 33.535156 -36.953125 31.917969 -39.042969 C 30.304688 -41.132812 28.308594 -43.316406 26.027344 -45.691406 C 24.128906 -47.496094 22.609375 -49.113281 21.375 -50.632812 C 20.140625 -52.152344 19.1875 -53.578125 18.429688 -55.003906 C 17.667969 -56.332031 17.097656 -57.757812 16.8125 -59.085938 C 16.433594 -60.417969 16.339844 -61.746094 16.339844 -63.265625 C 16.339844 -66.117188 16.8125 -68.207031 17.765625 -69.441406 C 18.714844 -70.675781 20.140625 -71.339844 22.039062 -71.339844 C 23.84375 -71.339844 25.269531 -70.675781 26.21875 -69.441406 C 27.167969 -68.207031 27.644531 -66.117188 27.644531 -63.265625 L 27.644531 -62.507812 C 27.644531 -61.746094 27.832031 -61.082031 28.214844 -60.605469 C 28.59375 -60.035156 29.164062 -59.847656 29.828125 -59.847656 L 36.191406 -59.847656 C 36.761719 -59.847656 37.332031 -60.035156 37.714844 -60.605469 C 38.09375 -61.082031 38.378906 -61.746094 38.378906 -62.507812 Z M 38.378906 -62.507812 "/></g></g></g><g fill="#ffffff" fill-opacity="1"><g transform="translate(211.203451, 204.500027)"><g><path d="M 56.332031 -15.390625 L 49.585938 -20.042969 C 48.828125 -20.425781 48.164062 -20.328125 47.6875 -19.664062 C 46.546875 -18.144531 45.40625 -16.8125 44.171875 -15.675781 C 42.9375 -14.535156 41.703125 -13.679688 40.5625 -12.917969 C 39.328125 -12.160156 38.1875 -11.683594 37.046875 -11.304688 C 35.90625 -10.925781 34.957031 -10.828125 34.199219 -10.828125 C 32.773438 -10.828125 30.96875 -11.210938 28.878906 -11.96875 C 26.789062 -12.730469 24.699219 -14.152344 22.703125 -16.339844 C 20.707031 -18.523438 19 -21.660156 17.574219 -25.648438 C 16.148438 -29.636719 15.484375 -34.863281 15.484375 -41.324219 C 15.484375 -47.78125 16.148438 -53.007812 17.574219 -56.996094 C 19 -60.988281 20.707031 -64.121094 22.703125 -66.304688 C 24.699219 -68.492188 26.789062 -70.011719 28.878906 -70.769531 C 30.96875 -71.53125 32.773438 -71.910156 34.199219 -71.910156 C 34.957031 -71.910156 35.90625 -71.722656 37.046875 -71.339844 C 38.1875 -70.960938 39.328125 -70.484375 40.5625 -69.726562 C 41.703125 -68.964844 42.9375 -68.113281 44.171875 -67.066406 C 45.40625 -65.925781 46.546875 -64.691406 47.6875 -63.171875 C 48.066406 -62.507812 48.734375 -62.316406 49.585938 -62.695312 L 56.332031 -67.445312 C 56.710938 -67.636719 56.902344 -68.015625 56.996094 -68.585938 C 57.09375 -69.0625 56.996094 -69.535156 56.808594 -69.917969 C 54.148438 -74.191406 50.824219 -77.421875 47.023438 -79.605469 C 43.222656 -81.695312 38.949219 -82.835938 34.199219 -82.835938 C 29.449219 -82.835938 25.171875 -81.695312 21.375 -79.605469 C 17.574219 -77.421875 14.34375 -74.191406 11.683594 -69.917969 C 7.03125 -62.507812 4.75 -53.007812 4.75 -41.324219 C 4.75 -29.734375 7.03125 -20.234375 11.683594 -12.730469 C 14.34375 -8.550781 17.574219 -5.320312 21.375 -3.230469 C 25.171875 -1.046875 29.449219 0 34.199219 0 C 38.949219 0 43.222656 -1.046875 47.023438 -3.230469 C 50.824219 -5.320312 54.148438 -8.550781 56.808594 -12.730469 L 56.808594 -12.917969 C 56.996094 -13.300781 57.09375 -13.679688 56.996094 -14.25 C 56.902344 -14.722656 56.710938 -15.105469 56.332031 -15.390625 Z M 56.332031 -15.390625 "/></g></g></g><g fill="#ffffff" fill-opacity="1"><g transform="translate(273.043383, 204.500027)"><g><path d="M 42.460938 -82.835938 L 37.332031 -82.835938 C 36.476562 -82.835938 35.8125 -82.550781 35.242188 -81.980469 C 34.671875 -81.410156 34.484375 -80.839844 34.484375 -80.082031 L 34.484375 -63.648438 C 34.484375 -62.886719 34.199219 -62.222656 33.628906 -61.652344 C 33.058594 -61.082031 32.488281 -60.890625 31.726562 -60.890625 L 18.238281 -60.890625 C 17.480469 -60.890625 16.8125 -61.082031 16.246094 -61.652344 C 15.675781 -62.222656 15.484375 -62.886719 15.484375 -63.648438 L 15.484375 -80.082031 C 15.484375 -80.839844 15.199219 -81.410156 14.628906 -81.980469 C 14.058594 -82.550781 13.488281 -82.835938 12.730469 -82.835938 L 7.503906 -82.835938 C 6.746094 -82.835938 6.078125 -82.550781 5.507812 -81.980469 C 4.941406 -81.410156 4.75 -80.839844 4.75 -80.082031 L 4.75 -2.753906 C 4.75 -1.996094 4.941406 -1.328125 5.507812 -0.761719 C 6.078125 -0.191406 6.746094 0 7.503906 0 L 12.730469 0 C 13.488281 0 14.058594 -0.191406 14.628906 -0.761719 C 15.199219 -1.328125 15.484375 -1.996094 15.484375 -2.753906 L 15.484375 -47.402344 C 15.484375 -48.164062 15.675781 -48.734375 16.246094 -49.300781 C 16.8125 -49.871094 17.480469 -50.15625 18.238281 -50.15625 L 31.726562 -50.15625 C 32.488281 -50.15625 33.058594 -49.871094 33.628906 -49.300781 C 34.199219 -48.734375 34.484375 -48.164062 34.484375 -47.402344 L 34.484375 -2.753906 C 34.484375 -1.996094 34.671875 -1.328125 35.242188 -0.761719 C 35.8125 -0.191406 36.476562 0 37.332031 0 L 42.460938 0 C 43.222656 0 43.792969 -0.191406 44.363281 -0.761719 C 44.933594 -1.328125 45.21875 -1.996094 45.21875 -2.753906 L 45.21875 -80.082031 C 45.21875 -80.839844 44.933594 -81.410156 44.363281 -81.980469 C 43.792969 -82.550781 43.222656 -82.835938 42.460938 -82.835938 Z M 42.460938 -82.835938 "/></g></g></g><g fill="#ffffff" fill-opacity="1"><g transform="translate(323.009293, 204.500027)"><g><path d="M 18.238281 -72.101562 L 36.191406 -72.101562 C 36.953125 -72.101562 37.523438 -72.292969 38.09375 -72.859375 C 38.664062 -73.429688 38.949219 -74.097656 38.949219 -74.855469 L 38.949219 -80.082031 C 38.949219 -80.839844 38.664062 -81.410156 38.09375 -81.980469 C 37.523438 -82.550781 36.953125 -82.835938 36.191406 -82.835938 L 7.503906 -82.835938 C 6.746094 -82.835938 6.078125 -82.550781 5.507812 -81.980469 C 4.941406 -81.410156 4.75 -80.839844 4.75 -80.082031 L 4.75 -2.753906 C 4.75 -1.996094 4.941406 -1.328125 5.507812 -0.761719 C 6.078125 -0.191406 6.746094 0 7.503906 0 L 36.191406 0 C 36.953125 0 37.523438 -0.191406 38.09375 -0.761719 C 38.664062 -1.328125 38.949219 -1.996094 38.949219 -2.753906 L 38.949219 -7.980469 C 38.949219 -8.738281 38.664062 -9.308594 38.09375 -9.878906 C 37.523438 -10.449219 36.953125 -10.734375 36.191406 -10.734375 L 18.238281 -10.734375 C 17.480469 -10.734375 16.8125 -10.925781 16.246094 -11.496094 C 15.675781 -12.0625 15.484375 -12.730469 15.484375 -13.488281 L 15.484375 -47.402344 C 15.484375 -48.164062 15.675781 -48.734375 16.246094 -49.300781 C 16.8125 -49.871094 17.480469 -50.15625 18.238281 -50.15625 L 30.113281 -50.15625 C 30.875 -50.15625 31.539062 -50.441406 32.109375 -51.011719 C 32.679688 -51.582031 32.964844 -52.246094 32.964844 -53.007812 L 32.964844 -58.136719 C 32.964844 -58.898438 32.679688 -59.46875 32.109375 -60.035156 C 31.539062 -60.605469 30.875 -60.890625 30.113281 -60.890625 L 18.238281 -60.890625 C 17.480469 -60.890625 16.8125 -61.082031 16.246094 -61.652344 C 15.675781 -62.222656 15.484375 -62.886719 15.484375 -63.648438 L 15.484375 -69.347656 C 15.484375 -70.105469 15.675781 -70.675781 16.246094 -71.246094 C 16.8125 -71.816406 17.480469 -72.101562 18.238281 -72.101562 Z M 18.238281 -72.101562 "/></g></g></g><g fill="#ffffff" fill-opacity="1"><g transform="translate(366.705707, 204.500027)"><g><path d="M 48.828125 -41.511719 C 48.828125 -47.210938 47.972656 -52.53125 46.453125 -57.566406 C 44.933594 -62.507812 42.652344 -66.875 39.804688 -70.675781 C 36.953125 -74.476562 33.4375 -77.421875 29.351562 -79.605469 C 25.171875 -81.695312 20.613281 -82.835938 15.484375 -82.835938 L 7.503906 -82.835938 C 6.746094 -82.835938 6.078125 -82.457031 5.507812 -81.789062 C 4.941406 -81.125 4.75 -80.367188 4.75 -79.511719 L 4.75 -3.230469 C 4.75 -2.28125 4.941406 -1.519531 5.507812 -0.949219 C 6.078125 -0.285156 6.746094 0 7.503906 0 L 15.484375 0 C 20.613281 0 25.171875 -1.046875 29.351562 -3.230469 C 33.4375 -5.414062 36.953125 -8.359375 39.804688 -12.160156 C 42.652344 -15.863281 44.933594 -20.234375 46.453125 -25.363281 C 47.972656 -30.398438 48.828125 -35.8125 48.828125 -41.511719 Z M 18.617188 -13.015625 C 17.667969 -12.824219 16.910156 -13.109375 16.339844 -13.773438 C 15.769531 -14.34375 15.484375 -15.199219 15.484375 -16.246094 L 15.484375 -66.6875 C 15.484375 -67.636719 15.769531 -68.394531 16.339844 -69.0625 C 16.910156 -69.726562 17.667969 -70.011719 18.617188 -69.917969 C 21.660156 -69.441406 24.320312 -68.394531 26.695312 -66.78125 C 28.972656 -65.070312 30.96875 -62.980469 32.582031 -60.511719 C 34.101562 -57.945312 35.339844 -55.003906 36.097656 -51.773438 C 36.859375 -48.542969 37.332031 -45.121094 37.332031 -41.511719 C 37.332031 -37.808594 36.859375 -34.292969 36.097656 -31.0625 C 35.339844 -27.832031 34.101562 -24.890625 32.582031 -22.417969 C 30.96875 -19.855469 28.972656 -17.765625 26.695312 -16.148438 C 24.320312 -14.4375 21.660156 -13.394531 18.617188 -13.015625 Z M 18.617188 -13.015625 "/></g></g></g><g fill="#ffffff" fill-opacity="1"><g transform="translate(420.281312, 204.500027)"><g><path d="M 42.460938 -82.835938 L 37.332031 -82.835938 C 36.574219 -82.835938 35.90625 -82.550781 35.339844 -81.980469 C 34.769531 -81.410156 34.484375 -80.839844 34.484375 -80.082031 L 34.484375 -19.949219 C 34.484375 -17.289062 33.535156 -15.105469 31.824219 -13.394531 C 30.019531 -11.589844 27.832031 -10.734375 25.269531 -10.734375 C 23.9375 -10.734375 22.609375 -10.925781 21.46875 -11.496094 C 20.234375 -11.96875 19.1875 -12.632812 18.335938 -13.585938 C 17.382812 -14.4375 16.71875 -15.484375 16.246094 -16.71875 C 15.675781 -17.859375 15.484375 -19.1875 15.484375 -20.519531 L 15.484375 -80.082031 C 15.484375 -80.839844 15.199219 -81.410156 14.628906 -81.980469 C 14.058594 -82.550781 13.394531 -82.835938 12.632812 -82.835938 L 7.503906 -82.835938 C 6.746094 -82.835938 6.078125 -82.550781 5.507812 -81.980469 C 4.941406 -81.410156 4.75 -80.839844 4.75 -80.082031 L 4.75 -20.234375 C 4.75 -17.382812 5.226562 -14.820312 6.363281 -12.347656 C 7.410156 -9.878906 8.835938 -7.789062 10.734375 -5.984375 C 12.539062 -4.085938 14.628906 -2.660156 17.097656 -1.613281 C 19.570312 -0.476562 22.132812 0 24.984375 0 C 27.738281 0 30.398438 -0.476562 32.867188 -1.519531 C 35.339844 -2.566406 37.429688 -3.988281 39.328125 -5.890625 C 41.132812 -7.695312 42.558594 -9.878906 43.601562 -12.347656 C 44.648438 -14.820312 45.21875 -17.382812 45.21875 -20.234375 L 45.21875 -80.082031 C 45.21875 -80.839844 44.933594 -81.410156 44.363281 -81.980469 C 43.792969 -82.550781 43.222656 -82.835938 42.460938 -82.835938 Z M 42.460938 -82.835938 "/></g></g></g><g fill="#ffffff" fill-opacity="1"><g transform="translate(470.247222, 204.500027)"><g><path d="M 33.722656 -10.734375 L 18.238281 -10.734375 C 17.480469 -10.734375 16.8125 -10.925781 16.246094 -11.496094 C 15.675781 -12.0625 15.484375 -12.730469 15.484375 -13.488281 L 15.484375 -80.082031 C 15.484375 -80.839844 15.199219 -81.410156 14.628906 -81.980469 C 14.058594 -82.550781 13.488281 -82.835938 12.730469 -82.835938 L 7.503906 -82.835938 C 6.746094 -82.835938 6.078125 -82.550781 5.507812 -81.980469 C 4.941406 -81.410156 4.75 -80.839844 4.75 -80.082031 L 4.75 -2.753906 C 4.75 -1.996094 4.941406 -1.328125 5.507812 -0.761719 C 6.078125 -0.191406 6.746094 0 7.503906 0 L 33.722656 0 C 34.484375 0 35.054688 -0.191406 35.625 -0.761719 C 36.191406 -1.328125 36.476562 -1.996094 36.476562 -2.753906 L 36.476562 -7.980469 C 36.476562 -8.738281 36.191406 -9.308594 35.625 -9.878906 C 35.054688 -10.449219 34.484375 -10.734375 33.722656 -10.734375 Z M 33.722656 -10.734375 "/></g></g></g><g fill="#ffffff" fill-opacity="1"><g transform="translate(511.473828, 204.500027)"><g><path d="M 18.238281 -72.101562 L 36.191406 -72.101562 C 36.953125 -72.101562 37.523438 -72.292969 38.09375 -72.859375 C 38.664062 -73.429688 38.949219 -74.097656 38.949219 -74.855469 L 38.949219 -80.082031 C 38.949219 -80.839844 38.664062 -81.410156 38.09375 -81.980469 C 37.523438 -82.550781 36.953125 -82.835938 36.191406 -82.835938 L 7.503906 -82.835938 C 6.746094 -82.835938 6.078125 -82.550781 5.507812 -81.980469 C 4.941406 -81.410156 4.75 -80.839844 4.75 -80.082031 L 4.75 -2.753906 C 4.75 -1.996094 4.941406 -1.328125 5.507812 -0.761719 C 6.078125 -0.191406 6.746094 0 7.503906 0 L 36.191406 0 C 36.953125 0 37.523438 -0.191406 38.09375 -0.761719 C 38.664062 -1.328125 38.949219 -1.996094 38.949219 -2.753906 L 38.949219 -7.980469 C 38.949219 -8.738281 38.664062 -9.308594 38.09375 -9.878906 C 37.523438 -10.449219 36.953125 -10.734375 36.191406 -10.734375 L 18.238281 -10.734375 C 17.480469 -10.734375 16.8125 -10.925781 16.246094 -11.496094 C 15.675781 -12.0625 15.484375 -12.730469 15.484375 -13.488281 L 15.484375 -47.402344 C 15.484375 -48.164062 15.675781 -48.734375 16.246094 -49.300781 C 16.8125 -49.871094 17.480469 -50.15625 18.238281 -50.15625 L 30.113281 -50.15625 C 30.875 -50.15625 31.539062 -50.441406 32.109375 -51.011719 C 32.679688 -51.582031 32.964844 -52.246094 32.964844 -53.007812 L 32.964844 -58.136719 C 32.964844 -58.898438 32.679688 -59.46875 32.109375 -60.035156 C 31.539062 -60.605469 30.875 -60.890625 30.113281 -60.890625 L 18.238281 -60.890625 C 17.480469 -60.890625 16.8125 -61.082031 16.246094 -61.652344 C 15.675781 -62.222656 15.484375 -62.886719 15.484375 -63.648438 L 15.484375 -69.347656 C 15.484375 -70.105469 15.675781 -70.675781 16.246094 -71.246094 C 16.8125 -71.816406 17.480469 -72.101562 18.238281 -72.101562 Z M 18.238281 -72.101562 "/></g></g></g><g fill="#ffffff" fill-opacity="1"><g transform="translate(555.170253, 204.500027)"><g><path d="M 30.683594 -33.914062 C 30.304688 -34.769531 30.589844 -35.339844 31.347656 -35.71875 C 34.292969 -37.144531 36.667969 -39.328125 38.566406 -42.273438 C 40.371094 -45.121094 41.609375 -48.351562 42.367188 -51.867188 C 43.03125 -55.285156 43.128906 -58.898438 42.652344 -62.601562 C 42.179688 -66.210938 41.132812 -69.535156 39.613281 -72.578125 C 37.996094 -75.617188 35.8125 -78.085938 33.058594 -79.984375 C 30.304688 -81.886719 26.980469 -82.835938 23.179688 -82.835938 L 7.503906 -82.835938 C 6.746094 -82.835938 6.078125 -82.550781 5.507812 -81.980469 C 4.941406 -81.410156 4.75 -80.839844 4.75 -80.082031 L 4.75 -2.753906 C 4.75 -1.996094 4.941406 -1.328125 5.507812 -0.761719 C 6.078125 -0.191406 6.746094 0 7.503906 0 L 12.730469 0 C 13.488281 0 14.058594 -0.191406 14.628906 -0.761719 C 15.199219 -1.328125 15.484375 -1.996094 15.484375 -2.753906 L 15.484375 -31.160156 C 15.484375 -31.917969 15.675781 -32.488281 16.246094 -33.058594 C 16.8125 -33.628906 17.480469 -33.914062 18.238281 -33.914062 C 18.808594 -33.914062 19.285156 -33.535156 19.664062 -32.964844 C 21.183594 -28.785156 22.324219 -25.363281 23.273438 -22.894531 C 24.128906 -20.425781 24.792969 -18.429688 25.363281 -16.910156 C 25.933594 -15.390625 26.3125 -14.25 26.695312 -13.394531 C 26.980469 -12.539062 27.261719 -11.683594 27.644531 -10.734375 C 27.929688 -9.785156 28.308594 -8.738281 28.785156 -7.410156 C 29.257812 -6.078125 29.921875 -4.179688 30.875 -1.804688 C 31.253906 -0.570312 32.203125 0 33.535156 0 L 38.949219 0 C 39.898438 0 40.65625 -0.378906 41.226562 -1.140625 C 41.796875 -1.898438 41.894531 -2.753906 41.609375 -3.703125 C 39.992188 -8.074219 38.757812 -11.398438 37.902344 -13.871094 C 37.046875 -16.246094 36.382812 -18.050781 35.90625 -19.285156 C 35.433594 -20.519531 35.148438 -21.46875 34.957031 -22.039062 C 34.769531 -22.609375 34.484375 -23.273438 34.199219 -24.035156 C 33.914062 -24.792969 33.535156 -25.839844 33.058594 -27.261719 C 32.488281 -28.6875 31.726562 -30.875 30.683594 -33.914062 Z M 15.484375 -47.402344 L 15.484375 -69.347656 C 15.484375 -70.105469 15.675781 -70.675781 16.246094 -71.246094 C 16.8125 -71.816406 17.480469 -72.101562 18.238281 -72.101562 L 23.367188 -72.101562 C 25.363281 -72.101562 27.074219 -71.339844 28.402344 -70.011719 C 29.734375 -68.679688 30.683594 -66.972656 31.347656 -64.976562 C 32.011719 -62.886719 32.394531 -60.703125 32.394531 -58.328125 C 32.394531 -55.953125 32.011719 -53.765625 31.347656 -51.773438 C 30.589844 -49.683594 29.636719 -47.972656 28.308594 -46.640625 C 26.980469 -45.3125 25.269531 -44.648438 23.367188 -44.648438 L 18.238281 -44.648438 C 17.480469 -44.648438 16.8125 -44.835938 16.246094 -45.40625 C 15.675781 -45.976562 15.484375 -46.640625 15.484375 -47.402344 Z M 15.484375 -47.402344 "/></g></g></g><g fill="#ffffff" fill-opacity="1"><g transform="translate(167.981991, 102.976179)"><g><path d="M 15.484375 -2.753906 L 15.484375 -80.082031 C 15.484375 -80.839844 15.199219 -81.410156 14.628906 -81.980469 C 14.058594 -82.550781 13.488281 -82.835938 12.730469 -82.835938 L 7.503906 -82.835938 C 6.746094 -82.835938 6.078125 -82.550781 5.507812 -81.980469 C 4.941406 -81.410156 4.75 -80.839844 4.75 -80.082031 L 4.75 -2.753906 C 4.75 -1.996094 4.941406 -1.328125 5.507812 -0.761719 C 6.078125 -0.191406 6.746094 0 7.503906 0 L 12.730469 0 C 13.488281 0 14.058594 -0.191406 14.628906 -0.761719 C 15.199219 -1.328125 15.484375 -1.996094 15.484375 -2.753906 Z M 15.484375 -2.753906 "/></g></g></g><g fill="#ffffff" fill-opacity="1"><g transform="translate(188.215327, 102.976179)"><g><path d="M 46.359375 -82.835938 L 41.226562 -82.835938 C 40.46875 -82.835938 39.804688 -82.457031 39.234375 -81.789062 C 38.664062 -81.125 38.378906 -80.367188 38.378906 -79.511719 L 38.378906 -33.152344 C 38.378906 -32.394531 38.09375 -32.011719 37.617188 -31.824219 C 36.953125 -31.632812 36.574219 -31.917969 36.382812 -32.582031 L 17.289062 -80.9375 C 16.8125 -82.171875 15.960938 -82.835938 14.820312 -82.835938 L 7.503906 -82.835938 C 6.746094 -82.835938 6.078125 -82.457031 5.507812 -81.789062 C 4.941406 -81.125 4.75 -80.367188 4.75 -79.511719 L 4.75 -3.230469 C 4.75 -2.28125 4.941406 -1.519531 5.507812 -0.949219 C 6.078125 -0.285156 6.746094 0 7.503906 0 L 12.632812 0 C 13.394531 0 14.058594 -0.285156 14.628906 -0.949219 C 15.199219 -1.519531 15.484375 -2.28125 15.484375 -3.230469 L 15.484375 -49.683594 C 15.484375 -50.347656 15.769531 -50.726562 16.339844 -50.917969 C 16.910156 -51.105469 17.289062 -50.824219 17.480469 -50.253906 L 36.574219 -1.898438 C 37.046875 -0.570312 37.902344 0 39.042969 0 L 46.359375 0 C 47.117188 0 47.78125 -0.285156 48.351562 -1.046875 C 48.828125 -1.613281 49.113281 -2.375 49.113281 -3.230469 L 49.113281 -79.511719 C 49.113281 -80.367188 48.828125 -81.125 48.257812 -81.789062 C 47.6875 -82.457031 47.117188 -82.835938 46.359375 -82.835938 Z M 46.359375 -82.835938 "/></g></g></g><g fill="#ffffff" fill-opacity="1"><g transform="translate(242.075913, 102.976179)"><g><path d="M 43.984375 -74.855469 L 43.984375 -80.082031 C 43.984375 -80.839844 43.699219 -81.410156 43.128906 -81.980469 C 42.558594 -82.550781 41.894531 -82.835938 41.132812 -82.835938 L 7.503906 -82.835938 C 6.746094 -82.835938 6.078125 -82.550781 5.507812 -81.980469 C 4.941406 -81.410156 4.75 -80.839844 4.75 -80.082031 L 4.75 -74.855469 C 4.75 -74.097656 4.941406 -73.429688 5.507812 -72.859375 C 6.078125 -72.292969 6.746094 -72.101562 7.503906 -72.101562 L 16.246094 -72.101562 C 17.003906 -72.101562 17.574219 -71.816406 18.144531 -71.246094 C 18.714844 -70.675781 19 -70.105469 19 -69.347656 L 19 -2.753906 C 19 -1.996094 19.1875 -1.328125 19.757812 -0.761719 C 20.328125 -0.191406 20.992188 0 21.753906 0 L 26.882812 0 C 27.644531 0 28.308594 -0.191406 28.878906 -0.761719 C 29.449219 -1.328125 29.734375 -1.996094 29.734375 -2.753906 L 29.734375 -69.347656 C 29.734375 -70.105469 29.921875 -70.675781 30.492188 -71.246094 C 31.0625 -71.816406 31.726562 -72.101562 32.488281 -72.101562 L 41.132812 -72.101562 C 41.894531 -72.101562 42.558594 -72.292969 43.128906 -72.859375 C 43.699219 -73.429688 43.984375 -74.097656 43.984375 -74.855469 Z M 43.984375 -74.855469 "/></g></g></g><g fill="#ffffff" fill-opacity="1"><g transform="translate(290.806925, 102.976179)"><g><path d="M 18.238281 -72.101562 L 36.191406 -72.101562 C 36.953125 -72.101562 37.523438 -72.292969 38.09375 -72.859375 C 38.664062 -73.429688 38.949219 -74.097656 38.949219 -74.855469 L 38.949219 -80.082031 C 38.949219 -80.839844 38.664062 -81.410156 38.09375 -81.980469 C 37.523438 -82.550781 36.953125 -82.835938 36.191406 -82.835938 L 7.503906 -82.835938 C 6.746094 -82.835938 6.078125 -82.550781 5.507812 -81.980469 C 4.941406 -81.410156 4.75 -80.839844 4.75 -80.082031 L 4.75 -2.753906 C 4.75 -1.996094 4.941406 -1.328125 5.507812 -0.761719 C 6.078125 -0.191406 6.746094 0 7.503906 0 L 36.191406 0 C 36.953125 0 37.523438 -0.191406 38.09375 -0.761719 C 38.664062 -1.328125 38.949219 -1.996094 38.949219 -2.753906 L 38.949219 -7.980469 C 38.949219 -8.738281 38.664062 -9.308594 38.09375 -9.878906 C 37.523438 -10.449219 36.953125 -10.734375 36.191406 -10.734375 L 18.238281 -10.734375 C 17.480469 -10.734375 16.8125 -10.925781 16.246094 -11.496094 C 15.675781 -12.0625 15.484375 -12.730469 15.484375 -13.488281 L 15.484375 -47.402344 C 15.484375 -48.164062 15.675781 -48.734375 16.246094 -49.300781 C 16.8125 -49.871094 17.480469 -50.15625 18.238281 -50.15625 L 30.113281 -50.15625 C 30.875 -50.15625 31.539062 -50.441406 32.109375 -51.011719 C 32.679688 -51.582031 32.964844 -52.246094 32.964844 -53.007812 L 32.964844 -58.136719 C 32.964844 -58.898438 32.679688 -59.46875 32.109375 -60.035156 C 31.539062 -60.605469 30.875 -60.890625 30.113281 -60.890625 L 18.238281 -60.890625 C 17.480469 -60.890625 16.8125 -61.082031 16.246094 -61.652344 C 15.675781 -62.222656 15.484375 -62.886719 15.484375 -63.648438 L 15.484375 -69.347656 C 15.484375 -70.105469 15.675781 -70.675781 16.246094 -71.246094 C 16.8125 -71.816406 17.480469 -72.101562 18.238281 -72.101562 Z M 18.238281 -72.101562 "/></g></g></g><g fill="#ffffff" fill-opacity="1"><g transform="translate(334.50335, 102.976179)"><g><path d="M 30.683594 -33.914062 C 30.304688 -34.769531 30.589844 -35.339844 31.347656 -35.71875 C 34.292969 -37.144531 36.667969 -39.328125 38.566406 -42.273438 C 40.371094 -45.121094 41.609375 -48.351562 42.367188 -51.867188 C 43.03125 -55.285156 43.128906 -58.898438 42.652344 -62.601562 C 42.179688 -66.210938 41.132812 -69.535156 39.613281 -72.578125 C 37.996094 -75.617188 35.8125 -78.085938 33.058594 -79.984375 C 30.304688 -81.886719 26.980469 -82.835938 23.179688 -82.835938 L 7.503906 -82.835938 C 6.746094 -82.835938 6.078125 -82.550781 5.507812 -81.980469 C 4.941406 -81.410156 4.75 -80.839844 4.75 -80.082031 L 4.75 -2.753906 C 4.75 -1.996094 4.941406 -1.328125 5.507812 -0.761719 C 6.078125 -0.191406 6.746094 0 7.503906 0 L 12.730469 0 C 13.488281 0 14.058594 -0.191406 14.628906 -0.761719 C 15.199219 -1.328125 15.484375 -1.996094 15.484375 -2.753906 L 15.484375 -31.160156 C 15.484375 -31.917969 15.675781 -32.488281 16.246094 -33.058594 C 16.8125 -33.628906 17.480469 -33.914062 18.238281 -33.914062 C 18.808594 -33.914062 19.285156 -33.535156 19.664062 -32.964844 C 21.183594 -28.785156 22.324219 -25.363281 23.273438 -22.894531 C 24.128906 -20.425781 24.792969 -18.429688 25.363281 -16.910156 C 25.933594 -15.390625 26.3125 -14.25 26.695312 -13.394531 C 26.980469 -12.539062 27.261719 -11.683594 27.644531 -10.734375 C 27.929688 -9.785156 28.308594 -8.738281 28.785156 -7.410156 C 29.257812 -6.078125 29.921875 -4.179688 30.875 -1.804688 C 31.253906 -0.570312 32.203125 0 33.535156 0 L 38.949219 0 C 39.898438 0 40.65625 -0.378906 41.226562 -1.140625 C 41.796875 -1.898438 41.894531 -2.753906 41.609375 -3.703125 C 39.992188 -8.074219 38.757812 -11.398438 37.902344 -13.871094 C 37.046875 -16.246094 36.382812 -18.050781 35.90625 -19.285156 C 35.433594 -20.519531 35.148438 -21.46875 34.957031 -22.039062 C 34.769531 -22.609375 34.484375 -23.273438 34.199219 -24.035156 C 33.914062 -24.792969 33.535156 -25.839844 33.058594 -27.261719 C 32.488281 -28.6875 31.726562 -30.875 30.683594 -33.914062 Z M 15.484375 -47.402344 L 15.484375 -69.347656 C 15.484375 -70.105469 15.675781 -70.675781 16.246094 -71.246094 C 16.8125 -71.816406 17.480469 -72.101562 18.238281 -72.101562 L 23.367188 -72.101562 C 25.363281 -72.101562 27.074219 -71.339844 28.402344 -70.011719 C 29.734375 -68.679688 30.683594 -66.972656 31.347656 -64.976562 C 32.011719 -62.886719 32.394531 -60.703125 32.394531 -58.328125 C 32.394531 -55.953125 32.011719 -53.765625 31.347656 -51.773438 C 30.589844 -49.683594 29.636719 -47.972656 28.308594 -46.640625 C 26.980469 -45.3125 25.269531 -44.648438 23.367188 -44.648438 L 18.238281 -44.648438 C 17.480469 -44.648438 16.8125 -44.835938 16.246094 -45.40625 C 15.675781 -45.976562 15.484375 -46.640625 15.484375 -47.402344 Z M 15.484375 -47.402344 "/></g></g></g><g fill="#ffffff" fill-opacity="1"><g transform="translate(382.284434, 102.976179)"><g><path d="M 48.734375 -82.835938 L 43.414062 -82.835938 C 42.652344 -82.835938 42.082031 -82.550781 41.609375 -82.074219 C 41.132812 -81.601562 40.847656 -81.03125 40.65625 -80.367188 C 40.277344 -78.847656 39.898438 -76.757812 39.328125 -74.285156 C 38.757812 -71.816406 38.09375 -68.964844 37.429688 -65.925781 C 36.667969 -62.886719 36.003906 -59.65625 35.242188 -56.238281 C 34.484375 -52.816406 33.722656 -49.585938 32.964844 -46.359375 C 32.203125 -43.128906 31.539062 -40.089844 30.875 -37.238281 C 30.207031 -34.386719 29.636719 -31.917969 29.257812 -29.921875 C 29.070312 -29.164062 28.6875 -28.785156 28.117188 -28.785156 C 27.453125 -28.785156 27.074219 -29.164062 26.882812 -29.921875 C 26.410156 -31.917969 25.839844 -34.386719 25.269531 -37.238281 C 24.605469 -40.089844 23.9375 -43.128906 23.179688 -46.359375 C 22.417969 -49.585938 21.753906 -52.914062 20.992188 -56.332031 C 20.234375 -59.75 19.472656 -62.980469 18.808594 -66.023438 C 18.050781 -69.0625 17.480469 -71.910156 16.910156 -74.382812 C 16.339844 -76.851562 15.863281 -78.847656 15.578125 -80.367188 C 15.390625 -81.03125 15.007812 -81.601562 14.535156 -82.074219 C 14.058594 -82.550781 13.488281 -82.835938 12.824219 -82.835938 L 7.503906 -82.835938 C 6.554688 -82.835938 5.890625 -82.359375 5.320312 -81.503906 C 4.75 -80.746094 4.65625 -79.796875 4.84375 -78.65625 C 5.414062 -75.804688 6.269531 -72.292969 7.21875 -68.015625 C 8.167969 -63.742188 9.214844 -59.183594 10.355469 -54.242188 C 11.496094 -49.300781 12.632812 -44.171875 13.773438 -38.949219 C 14.914062 -33.722656 16.054688 -28.785156 17.097656 -24.035156 C 18.144531 -19.285156 19.09375 -15.105469 20.042969 -11.304688 C 20.898438 -7.503906 21.5625 -4.558594 22.039062 -2.46875 C 22.132812 -1.710938 22.417969 -1.140625 22.988281 -0.664062 C 23.464844 -0.191406 24.035156 0 24.699219 0 L 31.539062 0 C 32.109375 0 32.679688 -0.191406 33.25 -0.664062 C 33.722656 -1.140625 34.007812 -1.710938 34.199219 -2.46875 C 36.382812 -12.347656 38.28125 -20.898438 39.898438 -27.929688 C 41.511719 -34.957031 42.84375 -40.941406 43.984375 -45.789062 C 45.027344 -50.632812 45.882812 -54.527344 46.546875 -57.472656 C 47.210938 -60.417969 47.78125 -62.792969 48.164062 -64.597656 C 48.542969 -66.304688 48.921875 -67.730469 49.113281 -68.679688 C 49.300781 -69.632812 49.585938 -70.484375 49.777344 -71.339844 C 49.96875 -72.101562 50.15625 -73.050781 50.347656 -74.097656 C 50.539062 -75.140625 50.917969 -76.660156 51.390625 -78.65625 C 51.582031 -79.605469 51.390625 -80.554688 50.917969 -81.503906 C 50.347656 -82.359375 49.585938 -82.835938 48.734375 -82.835938 Z M 48.734375 -82.835938 "/></g></g></g><g fill="#ffffff" fill-opacity="1"><g transform="translate(438.519829, 102.976179)"><g><path d="M 15.484375 -2.753906 L 15.484375 -80.082031 C 15.484375 -80.839844 15.199219 -81.410156 14.628906 -81.980469 C 14.058594 -82.550781 13.488281 -82.835938 12.730469 -82.835938 L 7.503906 -82.835938 C 6.746094 -82.835938 6.078125 -82.550781 5.507812 -81.980469 C 4.941406 -81.410156 4.75 -80.839844 4.75 -80.082031 L 4.75 -2.753906 C 4.75 -1.996094 4.941406 -1.328125 5.507812 -0.761719 C 6.078125 -0.191406 6.746094 0 7.503906 0 L 12.730469 0 C 13.488281 0 14.058594 -0.191406 14.628906 -0.761719 C 15.199219 -1.328125 15.484375 -1.996094 15.484375 -2.753906 Z M 15.484375 -2.753906 "/></g></g></g><g fill="#ffffff" fill-opacity="1"><g transform="translate(458.753165, 102.976179)"><g><path d="M 18.238281 -72.101562 L 36.191406 -72.101562 C 36.953125 -72.101562 37.523438 -72.292969 38.09375 -72.859375 C 38.664062 -73.429688 38.949219 -74.097656 38.949219 -74.855469 L 38.949219 -80.082031 C 38.949219 -80.839844 38.664062 -81.410156 38.09375 -81.980469 C 37.523438 -82.550781 36.953125 -82.835938 36.191406 -82.835938 L 7.503906 -82.835938 C 6.746094 -82.835938 6.078125 -82.550781 5.507812 -81.980469 C 4.941406 -81.410156 4.75 -80.839844 4.75 -80.082031 L 4.75 -2.753906 C 4.75 -1.996094 4.941406 -1.328125 5.507812 -0.761719 C 6.078125 -0.191406 6.746094 0 7.503906 0 L 36.191406 0 C 36.953125 0 37.523438 -0.191406 38.09375 -0.761719 C 38.664062 -1.328125 38.949219 -1.996094 38.949219 -2.753906 L 38.949219 -7.980469 C 38.949219 -8.738281 38.664062 -9.308594 38.09375 -9.878906 C 37.523438 -10.449219 36.953125 -10.734375 36.191406 -10.734375 L 18.238281 -10.734375 C 17.480469 -10.734375 16.8125 -10.925781 16.246094 -11.496094 C 15.675781 -12.0625 15.484375 -12.730469 15.484375 -13.488281 L 15.484375 -47.402344 C 15.484375 -48.164062 15.675781 -48.734375 16.246094 -49.300781 C 16.8125 -49.871094 17.480469 -50.15625 18.238281 -50.15625 L 30.113281 -50.15625 C 30.875 -50.15625 31.539062 -50.441406 32.109375 -51.011719 C 32.679688 -51.582031 32.964844 -52.246094 32.964844 -53.007812 L 32.964844 -58.136719 C 32.964844 -58.898438 32.679688 -59.46875 32.109375 -60.035156 C 31.539062 -60.605469 30.875 -60.890625 30.113281 -60.890625 L 18.238281 -60.890625 C 17.480469 -60.890625 16.8125 -61.082031 16.246094 -61.652344 C 15.675781 -62.222656 15.484375 -62.886719 15.484375 -63.648438 L 15.484375 -69.347656 C 15.484375 -70.105469 15.675781 -70.675781 16.246094 -71.246094 C 16.8125 -71.816406 17.480469 -72.101562 18.238281 -72.101562 Z M 18.238281 -72.101562 "/></g></g></g><g fill="#ffffff" fill-opacity="1"><g transform="translate(502.44959, 102.976179)"><g><path d="M 59.941406 -2.753906 L 73.527344 -78.75 C 73.527344 -79.226562 73.527344 -79.699219 73.429688 -80.269531 C 73.335938 -80.746094 73.144531 -81.222656 72.957031 -81.601562 C 72.292969 -82.359375 71.53125 -82.835938 70.675781 -82.835938 L 65.546875 -82.835938 C 64.785156 -82.835938 64.214844 -82.550781 63.742188 -82.074219 C 63.171875 -81.503906 62.886719 -80.839844 62.792969 -80.082031 L 54.71875 -35.054688 C 54.621094 -34.578125 54.335938 -34.386719 53.957031 -34.386719 C 53.386719 -34.386719 53.195312 -34.578125 53.195312 -35.054688 C 51.867188 -42.179688 50.824219 -47.972656 50.0625 -52.53125 C 49.207031 -57.09375 48.542969 -60.703125 48.066406 -63.457031 C 47.59375 -66.210938 47.210938 -68.300781 47.023438 -69.726562 C 46.738281 -71.152344 46.546875 -72.292969 46.359375 -73.242188 C 46.167969 -74.191406 45.976562 -75.046875 45.789062 -75.996094 C 45.597656 -76.945312 45.40625 -78.277344 45.121094 -80.082031 C 44.933594 -80.839844 44.648438 -81.503906 44.078125 -82.074219 C 43.507812 -82.550781 42.9375 -82.835938 42.273438 -82.835938 L 36.003906 -82.835938 C 35.242188 -82.835938 34.671875 -82.550781 34.101562 -82.074219 C 33.535156 -81.503906 33.25 -80.839844 33.152344 -80.082031 L 25.171875 -35.054688 C 25.078125 -34.578125 24.792969 -34.386719 24.320312 -34.386719 C 23.84375 -34.386719 23.558594 -34.578125 23.558594 -35.054688 L 15.484375 -80.082031 C 15.292969 -80.839844 15.007812 -81.503906 14.535156 -82.074219 C 13.964844 -82.550781 13.394531 -82.835938 12.730469 -82.835938 L 7.597656 -82.835938 C 6.648438 -82.835938 5.890625 -82.359375 5.414062 -81.601562 C 4.84375 -80.839844 4.65625 -79.796875 4.84375 -78.65625 L 18.429688 -2.753906 C 18.523438 -1.898438 18.808594 -1.234375 19.378906 -0.761719 C 19.855469 -0.191406 20.425781 0 21.183594 0 L 27.546875 0 C 28.214844 0 28.785156 -0.191406 29.351562 -0.761719 C 29.828125 -1.234375 30.113281 -1.898438 30.304688 -2.753906 L 39.136719 -52.246094 L 47.972656 -2.753906 C 48.066406 -1.898438 48.351562 -1.234375 48.921875 -0.761719 C 49.492188 -0.191406 50.0625 0 50.824219 0 L 57.09375 0 C 57.757812 0 58.328125 -0.191406 58.898438 -0.761719 C 59.46875 -1.234375 59.75 -1.898438 59.941406 -2.753906 Z M 59.941406 -2.753906 "/></g></g></g></svg>