<svg xmlns="http://www.w3.org/2000/svg" xmlns:xlink="http://www.w3.org/1999/xlink" width="300" zoomAndPan="magnify" viewBox="0 0 224.87999 299.999988" height="400" preserveAspectRatio="xMidYMid meet" version="1.0"><defs><clipPath id="7fee11a253"><path d="M 1.125 0.078125 L 222 0.078125 L 222 220 L 1.125 220 Z M 1.125 0.078125 " clip-rule="nonzero"/></clipPath><clipPath id="bfef3f6e66"><path d="M 29 128 L 174 128 L 174 299.917969 L 29 299.917969 Z M 29 128 " clip-rule="nonzero"/></clipPath><clipPath id="393031063a"><path d="M 11 110 L 192 110 L 192 299.917969 L 11 299.917969 Z M 11 110 " clip-rule="nonzero"/></clipPath><clipPath id="9b87cc0c10"><path d="M 24 0.078125 L 193 0.078125 L 193 131 L 24 131 Z M 24 0.078125 " clip-rule="nonzero"/></clipPath></defs><g clip-path="url(#7fee11a253)"><path fill="#ffde59" d="M 1.265625 109.921875 C 1.265625 111.71875 1.308594 113.515625 1.398438 115.3125 C 1.484375 117.109375 1.617188 118.898438 1.796875 120.6875 C 1.972656 122.476562 2.191406 124.261719 2.457031 126.039062 C 2.71875 127.816406 3.027344 129.589844 3.378906 131.351562 C 3.730469 133.113281 4.125 134.867188 4.5625 136.613281 C 5 138.355469 5.480469 140.089844 6.003906 141.808594 C 6.527344 143.527344 7.089844 145.234375 7.695312 146.925781 C 8.304688 148.621094 8.953125 150.296875 9.640625 151.957031 C 10.328125 153.617188 11.058594 155.261719 11.828125 156.886719 C 12.597656 158.511719 13.40625 160.117188 14.257812 161.703125 C 15.105469 163.289062 15.992188 164.851562 16.917969 166.394531 C 17.84375 167.933594 18.808594 169.453125 19.808594 170.949219 C 20.808594 172.441406 21.84375 173.914062 22.917969 175.355469 C 23.992188 176.800781 25.097656 178.214844 26.238281 179.605469 C 27.382812 180.996094 28.558594 182.355469 29.765625 183.6875 C 30.976562 185.019531 32.21875 186.320312 33.492188 187.59375 C 34.765625 188.863281 36.066406 190.105469 37.402344 191.3125 C 38.738281 192.519531 40.101562 193.691406 41.492188 194.832031 C 42.882812 195.972656 44.304688 197.078125 45.75 198.148438 C 47.195312 199.21875 48.667969 200.253906 50.164062 201.253906 C 51.660156 202.253906 53.183594 203.214844 54.726562 204.136719 C 56.269531 205.0625 57.835938 205.949219 59.425781 206.796875 C 61.015625 207.644531 62.621094 208.449219 64.25 209.21875 C 65.878906 209.988281 67.523438 210.714844 69.1875 211.402344 C 70.851562 212.09375 72.53125 212.738281 74.226562 213.34375 C 75.921875 213.949219 77.628906 214.515625 79.351562 215.035156 C 81.074219 215.558594 82.8125 216.035156 84.558594 216.472656 C 86.304688 216.910156 88.0625 217.304688 89.828125 217.65625 C 91.59375 218.003906 93.367188 218.3125 95.148438 218.578125 C 96.929688 218.839844 98.714844 219.058594 100.507812 219.238281 C 102.300781 219.414062 104.09375 219.546875 105.894531 219.632812 C 107.691406 219.722656 109.492188 219.765625 111.292969 219.765625 C 113.09375 219.765625 114.890625 219.722656 116.691406 219.632812 C 118.488281 219.546875 120.285156 219.414062 122.078125 219.238281 C 123.867188 219.058594 125.65625 218.839844 127.4375 218.578125 C 129.21875 218.3125 130.992188 218.003906 132.757812 217.65625 C 134.523438 217.304688 136.28125 216.910156 138.027344 216.472656 C 139.773438 216.035156 141.507812 215.558594 143.230469 215.035156 C 144.953125 214.515625 146.664062 213.949219 148.359375 213.34375 C 150.054688 212.738281 151.734375 212.09375 153.398438 211.402344 C 155.0625 210.714844 156.707031 209.988281 158.335938 209.21875 C 159.960938 208.449219 161.570312 207.644531 163.15625 206.796875 C 164.746094 205.949219 166.3125 205.0625 167.855469 204.136719 C 169.402344 203.214844 170.921875 202.253906 172.417969 201.253906 C 173.917969 200.253906 175.386719 199.21875 176.835938 198.148438 C 178.28125 197.078125 179.699219 195.972656 181.09375 194.832031 C 182.484375 193.691406 183.847656 192.519531 185.179688 191.3125 C 186.515625 190.105469 187.820312 188.863281 189.09375 187.59375 C 190.367188 186.320312 191.605469 185.019531 192.816406 183.6875 C 194.027344 182.355469 195.203125 180.996094 196.34375 179.605469 C 197.484375 178.214844 198.59375 176.800781 199.667969 175.355469 C 200.738281 173.914062 201.777344 172.441406 202.777344 170.949219 C 203.777344 169.453125 204.738281 167.933594 205.664062 166.394531 C 206.589844 164.851562 207.476562 163.289062 208.328125 161.703125 C 209.175781 160.117188 209.984375 158.511719 210.753906 156.886719 C 211.523438 155.261719 212.253906 153.617188 212.945312 151.957031 C 213.632812 150.296875 214.28125 148.621094 214.886719 146.925781 C 215.492188 145.234375 216.058594 143.527344 216.582031 141.808594 C 217.105469 140.089844 217.582031 138.355469 218.019531 136.613281 C 218.457031 134.867188 218.851562 133.113281 219.203125 131.351562 C 219.554688 129.589844 219.863281 127.816406 220.128906 126.039062 C 220.390625 124.261719 220.613281 122.476562 220.789062 120.6875 C 220.964844 118.898438 221.097656 117.109375 221.1875 115.3125 C 221.273438 113.515625 221.320312 111.71875 221.320312 109.921875 C 221.320312 108.125 221.273438 106.328125 221.1875 104.53125 C 221.097656 102.738281 220.964844 100.945312 220.789062 99.15625 C 220.613281 97.367188 220.390625 95.582031 220.128906 93.804688 C 219.863281 92.027344 219.554688 90.257812 219.203125 88.492188 C 218.851562 86.730469 218.457031 84.976562 218.019531 83.234375 C 217.582031 81.488281 217.105469 79.757812 216.582031 78.035156 C 216.058594 76.316406 215.492188 74.609375 214.886719 72.917969 C 214.28125 71.226562 213.632812 69.546875 212.945312 67.886719 C 212.253906 66.226562 211.523438 64.585938 210.753906 62.957031 C 209.984375 61.332031 209.175781 59.730469 208.328125 58.144531 C 207.476562 56.558594 206.589844 54.996094 205.664062 53.453125 C 204.738281 51.910156 203.777344 50.390625 202.777344 48.898438 C 201.777344 47.402344 200.738281 45.933594 199.667969 44.488281 C 198.59375 43.046875 197.484375 41.628906 196.34375 40.238281 C 195.203125 38.851562 194.027344 37.488281 192.816406 36.15625 C 191.605469 34.824219 190.367188 33.523438 189.09375 32.253906 C 187.820312 30.980469 186.515625 29.742188 185.179688 28.535156 C 183.847656 27.328125 182.484375 26.152344 181.09375 25.011719 C 179.699219 23.871094 178.28125 22.765625 176.835938 21.695312 C 175.386719 20.625 173.917969 19.589844 172.417969 18.59375 C 170.921875 17.59375 169.402344 16.632812 167.855469 15.707031 C 166.3125 14.785156 164.746094 13.898438 163.15625 13.050781 C 161.570312 12.203125 159.960938 11.394531 158.335938 10.625 C 156.707031 9.859375 155.0625 9.128906 153.398438 8.441406 C 151.734375 7.753906 150.054688 7.105469 148.359375 6.5 C 146.664062 5.894531 144.953125 5.332031 143.230469 4.808594 C 141.507812 4.289062 139.773438 3.808594 138.027344 3.371094 C 136.28125 2.933594 134.523438 2.542969 132.757812 2.191406 C 130.992188 1.839844 129.21875 1.53125 127.4375 1.269531 C 125.65625 1.003906 123.867188 0.785156 122.078125 0.609375 C 120.285156 0.433594 118.488281 0.300781 116.691406 0.210938 C 114.890625 0.125 113.09375 0.078125 111.292969 0.078125 C 109.492188 0.078125 107.691406 0.125 105.894531 0.210938 C 104.09375 0.300781 102.300781 0.433594 100.507812 0.609375 C 98.714844 0.785156 96.929688 1.003906 95.148438 1.269531 C 93.367188 1.53125 91.59375 1.839844 89.828125 2.191406 C 88.0625 2.542969 86.304688 2.933594 84.558594 3.371094 C 82.8125 3.808594 81.074219 4.289062 79.351562 4.808594 C 77.628906 5.332031 75.921875 5.894531 74.226562 6.5 C 72.53125 7.105469 70.851562 7.753906 69.1875 8.441406 C 67.523438 9.128906 65.878906 9.859375 64.25 10.625 C 62.621094 11.394531 61.015625 12.203125 59.425781 13.050781 C 57.835938 13.898438 56.269531 14.785156 54.726562 15.707031 C 53.183594 16.632812 51.660156 17.59375 50.164062 18.59375 C 48.667969 19.589844 47.195312 20.625 45.75 21.695312 C 44.304688 22.765625 42.882812 23.871094 41.492188 25.011719 C 40.101562 26.152344 38.738281 27.328125 37.402344 28.535156 C 36.066406 29.742188 34.765625 30.980469 33.492188 32.253906 C 32.21875 33.523438 30.976562 34.824219 29.765625 36.15625 C 28.558594 37.488281 27.382812 38.851562 26.238281 40.238281 C 25.097656 41.628906 23.992188 43.046875 22.917969 44.488281 C 21.84375 45.933594 20.808594 47.402344 19.808594 48.898438 C 18.808594 50.390625 17.84375 51.910156 16.917969 53.453125 C 15.992188 54.996094 15.105469 56.558594 14.257812 58.144531 C 13.40625 59.730469 12.597656 61.332031 11.828125 62.957031 C 11.058594 64.585938 10.328125 66.226562 9.640625 67.886719 C 8.953125 69.546875 8.304688 71.226562 7.695312 72.917969 C 7.089844 74.609375 6.527344 76.316406 6.003906 78.035156 C 5.480469 79.757812 5 81.488281 4.5625 83.234375 C 4.125 84.976562 3.730469 86.730469 3.378906 88.492188 C 3.027344 90.257812 2.71875 92.027344 2.457031 93.804688 C 2.191406 95.582031 1.972656 97.367188 1.796875 99.15625 C 1.617188 100.945312 1.484375 102.738281 1.398438 104.53125 C 1.308594 106.328125 1.265625 108.125 1.265625 109.921875 Z M 1.265625 109.921875 " fill-opacity="1" fill-rule="nonzero"/></g><g clip-path="url(#bfef3f6e66)"><path fill="#ffffff" d="M 38.238281 299.707031 C 38.238281 276.777344 46.867188 202.660156 46.867188 202.660156 L 29.566406 196.75 C 29.566406 196.75 38.746094 159.289062 52.238281 144.722656 C 65.734375 130.152344 95.726562 128.292969 95.726562 128.292969 C 103.296875 137.203125 115.4375 129.644531 115.4375 129.644531 C 151.605469 129.898438 173.773438 183.277344 173.773438 183.277344 L 153.253906 198.355469 C 153.253906 198.355469 158.796875 259.210938 158.203125 299.707031 " fill-opacity="1" fill-rule="nonzero"/></g><g clip-path="url(#393031063a)"><path stroke-linecap="butt" transform="matrix(-4.230172, 0, 0, 4.223099, 221.318707, 0.0800007)" fill="none" stroke-linejoin="miter" d="M 43.279664 70.949572 C 43.279664 65.519983 41.239816 47.969555 41.239816 47.969555 L 45.329669 46.570071 C 45.329669 46.570071 43.159618 37.699585 39.970106 34.250363 C 36.77967 30.800215 29.689606 30.359928 29.689606 30.359928 C 27.900007 32.469791 25.03 30.679969 25.03 30.679969 C 16.48 30.740092 11.239559 43.379841 11.239559 43.379841 L 16.090315 46.950235 C 16.090315 46.950235 14.779974 61.360382 14.920334 70.949572 " stroke="#000000" stroke-width="0.3" stroke-opacity="1" stroke-miterlimit="10"/></g><path stroke-linecap="butt" transform="matrix(-4.230172, 0, 0, 4.223099, 221.318707, 0.0800007)" fill-opacity="1" fill="#ffffff" fill-rule="nonzero" stroke-linejoin="miter" d="M 29.689606 25.970009 L 29.689606 30.609671 C 29.689606 30.609671 29.800417 35.350155 25.839844 37.210275 C 25.839844 37.210275 23.729816 34.469581 25.03 30.679969 L 25.03 27.229821 Z M 29.689606 25.970009 " stroke="#000000" stroke-width="0.3" stroke-opacity="1" stroke-miterlimit="10"/><path stroke-linecap="butt" transform="matrix(-4.230172, 0, 0, 4.223099, 221.318707, 0.0800007)" fill-opacity="1" fill="#ffffff" fill-rule="nonzero" stroke-linejoin="miter" d="M 32.880042 23.369911 C 32.459884 24.650073 31.190173 26.670213 28.709852 27.890252 C 26.939644 28.759726 24.559976 29.229612 21.43972 28.740301 C 14.369973 27.649759 17.049754 12.729952 17.049754 12.729952 C 17.049754 12.729952 17.21043 10.289875 25.359663 9.479599 C 31.440422 8.880217 32.840335 15.569618 33.049953 19.740319 C 33.519977 19.310207 34.190384 19.000341 35.070408 19.389754 C 36.839692 20.179681 35.789757 24.739795 32.880042 23.369911 Z M 32.880042 23.369911 " stroke="#000000" stroke-width="0.3" stroke-opacity="1" stroke-miterlimit="10"/><path fill="#000000" d="M 98.050781 54.9375 C 98.050781 54.9375 111.039062 58.570312 117.085938 49.828125 C 117.085938 49.828125 126.605469 54.429688 130.707031 51.980469 C 130.707031 51.980469 138.324219 62.371094 150.675781 61.355469 C 162.984375 60.34375 168.355469 40.367188 155.03125 33.527344 C 155.03125 33.527344 155.792969 16.421875 139.550781 13.71875 C 123.347656 11.019531 118.78125 21.152344 118.78125 21.152344 C 118.78125 21.152344 114.378906 15.746094 108.414062 15.917969 C 102.449219 16.042969 98.6875 21.027344 98.6875 21.027344 C 98.6875 21.027344 92.171875 16.296875 82.105469 18.195312 C 72.078125 20.097656 71.527344 35.175781 71.527344 35.175781 C 71.527344 35.175781 67.46875 31.667969 60.953125 38.679688 C 54.4375 45.691406 51.5625 64.269531 57.949219 71.832031 C 57.949219 71.832031 50.925781 79.390625 59.894531 91.933594 C 68.90625 104.476562 80.117188 99.871094 80.117188 99.871094 C 80.117188 99.871094 74.699219 100.464844 71.953125 97.042969 C 69.203125 93.621094 66.664062 86.359375 71.613281 82.808594 C 76.605469 79.261719 81.382812 83.484375 81.382812 83.484375 C 81.382812 83.484375 98.726562 69.085938 98.050781 54.9375 Z M 98.050781 54.9375 " fill-opacity="1" fill-rule="nonzero"/><g clip-path="url(#9b87cc0c10)"><path stroke-linecap="butt" transform="matrix(-4.230172, 0, 0, 4.223099, 221.318707, 0.0800007)" fill="none" stroke-linejoin="miter" d="M 29.140168 12.98987 C 29.140168 12.98987 26.069777 13.850094 24.640314 11.780006 C 24.640314 11.780006 22.389925 12.869623 21.420328 12.289665 C 21.420328 12.289665 19.619648 14.750092 16.699776 14.509599 C 13.790061 14.270032 12.520351 9.539722 15.670156 7.920095 C 15.670156 7.920095 15.490088 3.869641 19.329692 3.22956 C 23.160063 2.590404 24.239547 4.989783 24.239547 4.989783 C 24.239547 4.989783 25.280248 3.709621 26.690319 3.750319 C 28.100391 3.779918 28.98965 4.960183 28.98965 4.960183 C 28.98965 4.960183 30.529924 3.840042 32.909592 4.289578 C 35.280026 4.74004 35.410229 8.310434 35.410229 8.310434 C 35.410229 8.310434 36.369668 7.479808 37.909943 9.140134 C 39.450217 10.80046 40.129858 15.199629 38.620057 16.990376 C 38.620057 16.990376 40.280377 18.780198 38.160191 21.750284 C 36.029848 24.720371 33.379616 23.629828 33.379616 23.629828 C 33.379616 23.629828 34.660407 23.770424 35.309576 22.960148 C 35.959667 22.149872 36.559894 20.430348 35.389914 19.589548 C 34.209776 18.749673 33.080426 19.749569 33.080426 19.749569 C 33.080426 19.749569 28.980415 16.34012 29.140168 12.98987 Z M 29.140168 12.98987 " stroke="#000000" stroke-width="0.5" stroke-opacity="1" stroke-miterlimit="10"/></g><path stroke-linecap="butt" transform="matrix(-4.230172, 0, 0, 4.223099, 221.318707, 0.0800007)" fill-opacity="1" fill="#ffffff" fill-rule="nonzero" stroke-linejoin="miter" d="M 15.220448 28.929921 L 12.690261 44.43986 L 16.090315 46.94006 C 16.090315 46.94006 13.939656 56.900164 6.61966 53.410243 C -0.690179 49.920322 11.239559 28.219542 11.239559 28.219542 C 11.239559 28.219542 10.800008 18.790372 12.520351 18.160466 L 16.560339 21.869606 C 16.560339 21.869606 16.649911 24.330033 16.560339 25.959834 C 16.48 27.59981 15.220448 28.929921 15.220448 28.929921 Z M 15.220448 28.929921 " stroke="#000000" stroke-width="0.3" stroke-opacity="1" stroke-miterlimit="10"/><path fill="#000000" d="M 127.957031 80.996094 C 127.957031 86.1875 131.933594 90.539062 137.097656 91.003906 L 165.4375 93.578125 L 165.4375 68.707031 L 137.179688 71.027344 C 131.976562 71.40625 127.957031 75.757812 127.957031 80.996094 Z M 127.957031 80.996094 " fill-opacity="1" fill-rule="nonzero"/><path stroke-linecap="butt" transform="matrix(-4.230172, 0, 0, 4.223099, 221.318707, 0.0800007)" fill-opacity="1" fill="#ffffff" fill-rule="nonzero" stroke-linejoin="miter" d="M 15.889931 19.18996 C 15.889931 20.669916 14.690401 21.869606 13.21015 21.869606 C 11.729898 21.869606 10.530368 20.669916 10.530368 19.18996 C 10.530368 17.710004 11.729898 16.510315 13.21015 16.510315 C 14.690401 16.510315 15.889931 17.710004 15.889931 19.18996 Z M 15.889931 19.18996 " stroke="#000000" stroke-width="0.3" stroke-opacity="1" stroke-miterlimit="10"/><path fill="#000000" d="M 157.148438 81.121094 C 157.148438 85.683594 160.871094 89.398438 165.4375 89.398438 C 170.007812 89.398438 173.730469 85.683594 173.730469 81.121094 C 173.730469 76.558594 170.007812 72.84375 165.4375 72.84375 C 160.871094 72.84375 157.148438 76.558594 157.148438 81.121094 Z M 157.148438 81.121094 " fill-opacity="1" fill-rule="nonzero"/><path fill="#000000" d="M 92.085938 80.996094 C 92.085938 86.1875 96.0625 90.539062 101.222656 91.003906 L 129.566406 93.578125 L 129.566406 68.707031 L 101.308594 71.027344 C 96.105469 71.40625 92.085938 75.757812 92.085938 80.996094 Z M 92.085938 80.996094 " fill-opacity="1" fill-rule="nonzero"/><path stroke-linecap="butt" transform="matrix(-4.230172, 0, 0, 4.223099, 221.318707, 0.0800007)" fill-opacity="1" fill="#ffffff" fill-rule="nonzero" stroke-linejoin="miter" d="M 24.36975 19.18996 C 24.36975 20.669916 23.17022 21.869606 21.689969 21.869606 C 20.209717 21.869606 19.010187 20.669916 19.010187 19.18996 C 19.010187 17.710004 20.209717 16.510315 21.689969 16.510315 C 23.17022 16.510315 24.36975 17.710004 24.36975 19.18996 Z M 24.36975 19.18996 " stroke="#000000" stroke-width="0.3" stroke-opacity="1" stroke-miterlimit="10"/><path fill="#000000" d="M 121.273438 81.121094 C 121.273438 85.683594 124.996094 89.398438 129.566406 89.398438 C 134.136719 89.398438 137.855469 85.683594 137.855469 81.121094 C 137.855469 76.558594 134.136719 72.84375 129.566406 72.84375 C 124.996094 72.84375 121.273438 76.558594 121.273438 81.121094 Z M 121.273438 81.121094 " fill-opacity="1" fill-rule="nonzero"/><path stroke-linecap="butt" transform="matrix(-4.230172, 0, 0, 4.223099, 221.318707, 0.0800007)" fill-opacity="1" fill="#ffffff" fill-rule="nonzero" stroke-linejoin="miter" d="M 18.130162 15.440122 C 18.130162 15.440122 19.830189 15.939607 19.679671 16.870129 C 19.530076 17.809901 17.039596 15.99973 17.039596 15.99973 C 17.039596 15.99973 17.130092 15.429947 18.130162 15.440122 Z M 18.130162 15.440122 " stroke="#000000" stroke-width="0.3" stroke-opacity="1" stroke-miterlimit="10"/><path stroke-linecap="butt" transform="matrix(-4.230172, 0, 0, 4.223099, 221.318707, 0.0800007)" fill-opacity="1" fill="#ffffff" fill-rule="nonzero" stroke-linejoin="miter" d="M 16.370113 15.529844 C 16.370113 15.529844 18.07014 16.030254 17.919621 16.959852 C 17.770026 17.890374 15.279547 16.090378 15.279547 16.090378 C 15.279547 16.090378 15.359885 15.51042 16.370113 15.529844 Z M 16.370113 15.529844 " stroke="#000000" stroke-width="0.3" stroke-opacity="1" stroke-miterlimit="10"/><path stroke-linecap="butt" transform="matrix(-4.230172, 0, 0, 4.223099, 221.318707, 0.0800007)" fill-opacity="1" fill="#ffffff" fill-rule="nonzero" stroke-linejoin="miter" d="M 14.599906 15.619566 C 14.599906 15.619566 16.299932 16.119977 16.150337 17.049574 C 15.999819 17.980096 13.510263 16.1801 13.510263 16.1801 C 13.510263 16.1801 13.589678 15.600142 14.599906 15.619566 Z M 14.599906 15.619566 " stroke="#000000" stroke-width="0.3" stroke-opacity="1" stroke-miterlimit="10"/><path stroke-linecap="butt" transform="matrix(-4.230172, 0, 0, 4.223099, 221.318707, 0.0800007)" fill-opacity="1" fill="#ffffff" fill-rule="nonzero" stroke-linejoin="miter" d="M 16.390428 24.849867 C 16.390428 24.849867 16.890002 23.07022 18.200343 22.690056 C 19.50976 22.309893 19.989942 21.380295 19.010187 21.409894 C 18.039667 21.440418 16.150337 21.590264 15.740336 21.869606 " stroke="#000000" stroke-width="0.3" stroke-opacity="1" stroke-miterlimit="10"/><path stroke-linecap="butt" transform="matrix(-4.230172, 0, 0, 4.223099, 221.318707, 0.0800007)" fill-opacity="1" fill="#ffffff" fill-rule="nonzero" stroke-linejoin="miter" d="M 40.380107 55.430383 C 33.739752 56.069539 30.370171 26.219751 30.370171 26.219751 C 30.370171 26.219751 28.539941 24.350382 28.280459 22.259944 C 28.03021 20.179681 26.249845 17.209594 24.609841 16.50014 C 24.609841 16.50014 25.549889 16.070028 26.419756 16.629636 C 26.419756 16.629636 28.649829 16.269822 30.550239 16.290172 C 33.109975 16.309596 33.82009 19.960462 34.410159 22.130448 C 35.010386 24.300433 34.569912 25.400226 34.569912 25.400226 L 43.80971 46.829989 C 43.80971 46.829989 47.020462 54.790302 40.380107 55.430383 Z M 40.380107 55.430383 " stroke="#000000" stroke-width="0.3" stroke-opacity="1" stroke-miterlimit="10"/><path stroke-linecap="butt" transform="matrix(-4.230172, 0, 0, 4.223099, 221.318707, 0.0800007)" fill="none" stroke-linejoin="miter" d="M 29.689606 19.69037 C 29.689606 19.69037 29.009965 17.660056 27.630367 16.469616 " stroke="#000000" stroke-width="0.5" stroke-opacity="1" stroke-miterlimit="10"/><path stroke-linecap="butt" transform="matrix(-4.230172, 0, 0, 4.223099, 221.318707, 0.0800007)" fill="none" stroke-linejoin="miter" d="M 30.929767 19.18996 C 30.929767 19.18996 30.540081 17.379789 29.519696 16.319771 " stroke="#000000" stroke-width="0.5" stroke-opacity="1" stroke-miterlimit="10"/><path stroke-linecap="butt" transform="matrix(-4.230172, 0, 0, 4.223099, 221.318707, 0.0800007)" fill="none" stroke-linejoin="miter" d="M 31.449656 16.469616 C 31.449656 16.469616 32.109905 17.969922 32.240108 18.699725 " stroke="#000000" stroke-width="0.5" stroke-opacity="1" stroke-miterlimit="10"/><path stroke-linecap="butt" transform="matrix(-4.230172, 0, 0, 4.223099, 221.318707, 0.0800007)" fill="none" stroke-linejoin="miter" d="M 31.98986 36.759813 C 31.98986 36.759813 32.190243 39.719725 30.22981 40.010166 C 28.260143 40.309857 25.839844 37.2001 25.839844 37.2001 C 25.839844 37.2001 23.690109 40.469878 22.580151 40.029591 C 21.470193 39.580054 20.420258 34.469581 21.689969 31.340399 " stroke="#000000" stroke-width="0.3" stroke-opacity="1" stroke-miterlimit="10"/><path fill="#000000" d="M 109.007812 180.53125 C 109.007812 182.011719 110.191406 183.234375 111.714844 183.234375 C 113.238281 183.234375 114.378906 182.054688 114.378906 180.53125 C 114.378906 179.011719 113.195312 177.871094 111.714844 177.871094 C 110.234375 177.871094 109.007812 179.054688 109.007812 180.53125 Z M 109.007812 180.53125 " fill-opacity="1" fill-rule="nonzero"/><path fill="#000000" d="M 109.007812 216.640625 C 109.007812 218.117188 110.191406 219.34375 111.714844 219.34375 C 113.238281 219.34375 114.378906 218.160156 114.378906 216.640625 C 114.378906 215.121094 113.195312 213.980469 111.714844 213.980469 C 110.234375 213.980469 109.007812 215.164062 109.007812 216.640625 Z M 109.007812 216.640625 " fill-opacity="1" fill-rule="nonzero"/><path fill="#000000" d="M 109.007812 252.746094 C 109.007812 254.226562 110.191406 255.449219 111.714844 255.449219 C 113.238281 255.449219 114.378906 254.269531 114.378906 252.746094 C 114.378906 251.269531 113.195312 250.085938 111.714844 250.085938 C 110.234375 250.085938 109.007812 251.269531 109.007812 252.746094 Z M 109.007812 252.746094 " fill-opacity="1" fill-rule="nonzero"/><path fill="#000000" d="M 109.007812 288.855469 C 109.007812 290.332031 110.191406 291.515625 111.714844 291.515625 C 113.238281 291.515625 114.378906 290.332031 114.378906 288.855469 C 114.378906 287.378906 113.195312 286.152344 111.714844 286.152344 C 110.234375 286.152344 109.007812 287.378906 109.007812 288.855469 Z M 109.007812 288.855469 " fill-opacity="1" fill-rule="nonzero"/><path stroke-linecap="butt" transform="matrix(-4.230172, 0, 0, 4.223099, 221.318707, 0.0800007)" fill-opacity="1" fill="#ffffff" fill-rule="nonzero" stroke-linejoin="miter" d="M 20.360236 24.140413 C 20.360236 24.140413 22.619859 24.93034 24.12966 23.479983 " stroke="#000000" stroke-width="0.3" stroke-opacity="1" stroke-miterlimit="10"/><path stroke-linecap="butt" transform="matrix(-4.230172, 0, 0, 4.223099, 221.318707, 0.0800007)" fill-opacity="1" fill="#ffffff" fill-rule="nonzero" stroke-linejoin="miter" d="M 16.090315 46.94006 L 18.370253 42.729586 " stroke="#000000" stroke-width="0.3" stroke-opacity="1" stroke-miterlimit="10"/></svg>