<svg xmlns="http://www.w3.org/2000/svg" xmlns:xlink="http://www.w3.org/1999/xlink" width="1080" zoomAndPan="magnify" viewBox="0 0 810 809.999993" height="1080" preserveAspectRatio="xMidYMid meet" version="1.0"><defs><clipPath id="c7916a1e04"><path d="M 85 4.648438 L 725.359375 4.648438 L 725.359375 805.648438 L 85 805.648438 Z M 85 4.648438 " clip-rule="nonzero"/></clipPath><clipPath id="0aee9fd54a"><path d="M 99 124 L 628 124 L 628 805.648438 L 99 805.648438 Z M 99 124 " clip-rule="nonzero"/></clipPath><clipPath id="932e16116f"><path d="M 181 4.648438 L 539 4.648438 L 539 630 L 181 630 Z M 181 4.648438 " clip-rule="nonzero"/></clipPath><clipPath id="999f9a071b"><path d="M 238 32 L 725.359375 32 L 725.359375 805 L 238 805 Z M 238 32 " clip-rule="nonzero"/></clipPath></defs><g clip-path="url(#c7916a1e04)"><path fill="#fbeeec" d="M 628.363281 433.503906 L 546.25 433.503906 C 577.289062 427.386719 563.960938 368.867188 563.960938 368.867188 L 564.457031 368.867188 C 564.457031 368.867188 564.796875 360.578125 565.101562 347.804688 C 585.960938 346.59375 605.128906 340.492188 605.554688 321.371094 C 605.996094 301.351562 601.980469 233.386719 585.105469 206.242188 C 580.902344 199.476562 571.152344 193.601562 560.945312 188.980469 C 550.925781 158.214844 537.894531 122.027344 529.210938 112.304688 C 513.371094 94.570312 483.597656 102.019531 472.511719 115.472656 C 464.214844 125.539062 465.09375 136.945312 464.804688 155.695312 C 464.691406 163.148438 464.089844 184.476562 463.519531 203.910156 C 458.476562 207.839844 454.113281 212.527344 451.453125 218.03125 C 440.835938 239.96875 436.519531 308.652344 436.519531 308.652344 L 400.640625 313.148438 L 384.167969 264.460938 C 383.265625 261.804688 380.777344 260.019531 377.976562 260.019531 L 242.980469 260.019531 C 240.511719 260.019531 238.777344 262.4375 239.566406 264.773438 L 268.617188 350.640625 C 269.515625 353.292969 272.003906 355.082031 274.808594 355.082031 L 262.808594 355.082031 C 259.542969 355.082031 256.691406 357.28125 255.859375 360.4375 L 236.648438 433.503906 L 181.882812 433.503906 L 162.847656 506.5625 L 147.628906 564.972656 L 147.320312 564.972656 C 146.664062 564.972656 146.136719 565.5 146.136719 566.152344 C 146.136719 566.703125 146.519531 567.140625 147.027344 567.277344 L 132.097656 624.5625 L 131.789062 624.5625 C 131.136719 624.5625 130.609375 625.09375 130.609375 625.746094 C 130.609375 626.296875 130.988281 626.734375 131.496094 626.867188 L 116.570312 684.15625 L 116.261719 684.15625 C 115.609375 684.15625 115.078125 684.683594 115.078125 685.335938 C 115.078125 685.886719 115.460938 686.328125 115.96875 686.460938 L 101.039062 743.75 L 100.730469 743.75 C 100.078125 743.75 99.550781 744.277344 99.550781 744.929688 C 99.550781 745.480469 99.933594 745.917969 100.4375 746.054688 L 85.203125 804.523438 L 147.6875 804.523438 C 147.6875 805.046875 148.015625 805.527344 148.546875 805.664062 C 148.648438 805.691406 148.75 805.703125 148.847656 805.703125 C 149.371094 805.703125 149.851562 805.351562 149.988281 804.820312 L 150.066406 804.523438 L 211.328125 804.523438 C 211.328125 805.046875 211.660156 805.527344 212.191406 805.667969 C 212.292969 805.691406 212.390625 805.707031 212.488281 805.707031 C 213.015625 805.707031 213.492188 805.351562 213.632812 804.824219 L 213.710938 804.523438 L 274.972656 804.523438 C 274.972656 805.050781 275.304688 805.53125 275.835938 805.667969 C 275.933594 805.695312 276.035156 805.707031 276.132812 805.707031 C 276.660156 805.707031 277.136719 805.355469 277.277344 804.824219 L 277.355469 804.527344 L 338.617188 804.527344 C 338.617188 805.050781 338.949219 805.53125 339.480469 805.667969 C 339.578125 805.695312 339.679688 805.707031 339.777344 805.707031 C 340.300781 805.707031 340.78125 805.355469 340.917969 804.824219 L 340.996094 804.527344 L 402.261719 804.527344 C 402.261719 805.050781 402.589844 805.53125 403.121094 805.671875 C 403.222656 805.695312 403.324219 805.710938 403.421875 805.710938 C 403.945312 805.710938 404.425781 805.355469 404.5625 804.828125 L 404.640625 804.527344 L 725.042969 804.527344 Z M 452.984375 363.242188 L 454.835938 370.296875 C 421.988281 372.988281 353.90625 379.425781 315.515625 389.15625 L 322.332031 363.246094 L 452.984375 363.246094 Z M 181.777344 99.003906 C 181.777344 46.976562 224.105469 4.648438 276.132812 4.648438 C 328.160156 4.648438 370.488281 46.976562 370.488281 99.003906 C 370.488281 151.03125 328.160156 193.359375 276.132812 193.359375 C 224.105469 193.359375 181.777344 151.03125 181.777344 99.003906 Z M 181.777344 99.003906 " fill-opacity="1" fill-rule="nonzero"/></g><g clip-path="url(#0aee9fd54a)"><path fill="#f9684f" d="M 162.847656 506.5625 L 181.882812 433.503906 L 236.648438 433.503906 L 236.503906 434.058594 L 287.4375 434.058594 C 288.332031 454.96875 290.464844 482.082031 292.652344 506.5625 L 291.292969 506.5625 C 291.292969 506.039062 290.960938 505.554688 290.429688 505.417969 C 289.804688 505.246094 289.152344 505.632812 288.988281 506.261719 L 288.910156 506.5625 L 227.648438 506.5625 C 227.648438 506.039062 227.316406 505.554688 226.789062 505.417969 C 226.164062 505.246094 225.511719 505.632812 225.347656 506.261719 L 225.269531 506.5625 Z M 352.632812 506.261719 C 352.796875 505.632812 353.449219 505.246094 354.074219 505.417969 C 354.605469 505.554688 354.9375 506.035156 354.9375 506.5625 L 368.667969 506.5625 C 366.671875 484.625 364.644531 459.945312 363.492188 439.230469 C 349.035156 440.078125 337.996094 439.539062 337.996094 439.539062 C 337.996094 439.539062 337.972656 450.296875 337.082031 473.875 C 336.828125 480.613281 336.042969 492.945312 335.101562 506.5625 L 352.554688 506.5625 Z M 540.734375 434.058594 C 540.148438 434.058594 539.496094 434.058594 538.808594 434.058594 C 538.222656 434.058594 537.613281 434.058594 536.960938 434.058594 C 508.019531 434.058594 413.515625 434.066406 413.515625 434.066406 C 413.515625 434.066406 413.492188 444.824219 412.601562 468.402344 C 412.316406 476.03125 411.347656 490.839844 410.238281 506.5625 L 416.199219 506.5625 L 416.277344 506.261719 C 416.441406 505.632812 417.078125 505.242188 417.714844 505.417969 C 418.25 505.554688 418.578125 506.035156 418.578125 506.5625 L 479.839844 506.5625 L 479.917969 506.261719 C 480.082031 505.632812 480.71875 505.242188 481.359375 505.417969 C 481.890625 505.554688 482.222656 506.035156 482.222656 506.5625 L 543.003906 506.5625 L 543.5625 504.410156 C 543.726562 503.78125 544.367188 503.386719 545.003906 503.566406 C 545.632812 503.726562 546.015625 504.375 545.847656 505.003906 L 545.441406 506.5625 L 608.347656 506.5625 L 627.386719 433.503906 L 546.253906 433.503906 C 544.539062 433.84375 542.726562 434.058594 540.734375 434.058594 Z M 178.375 686.519531 L 163.460938 743.75 L 165.902344 743.75 L 180.816406 686.519531 Z M 209.433594 567.335938 L 194.519531 624.5625 L 196.960938 624.5625 L 211.875 567.335938 Z M 162.847656 746.113281 L 147.703125 804.226562 C 147.679688 804.324219 147.6875 804.421875 147.6875 804.523438 C 147.6875 805.046875 148.015625 805.527344 148.546875 805.664062 C 148.648438 805.691406 148.75 805.703125 148.847656 805.703125 C 149.371094 805.703125 149.851562 805.351562 149.988281 804.820312 L 150.066406 804.523438 L 165.289062 746.113281 Z M 193.902344 626.925781 L 178.992188 684.15625 L 181.433594 684.15625 L 196.347656 626.925781 Z M 227.632812 506.859375 C 227.660156 506.757812 227.652344 506.660156 227.652344 506.558594 C 227.652344 506.035156 227.320312 505.554688 226.789062 505.417969 C 226.164062 505.242188 225.511719 505.632812 225.347656 506.261719 L 225.269531 506.558594 L 210.050781 564.96875 L 212.492188 564.96875 Z M 226.488281 746.113281 L 211.34375 804.226562 C 211.320312 804.324219 211.328125 804.421875 211.328125 804.523438 C 211.328125 805.046875 211.660156 805.527344 212.191406 805.664062 C 212.289062 805.691406 212.390625 805.703125 212.488281 805.703125 C 213.015625 805.703125 213.492188 805.351562 213.632812 804.820312 L 213.710938 804.523438 L 228.929688 746.113281 Z M 242.019531 686.519531 L 227.105469 743.75 L 229.546875 743.75 L 244.460938 686.519531 Z M 259.480469 628.882812 C 259.164062 628.601562 258.886719 628.265625 258.71875 627.847656 L 258.34375 626.925781 L 257.546875 626.925781 L 242.632812 684.15625 L 245.074219 684.15625 Z M 291.292969 506.5625 C 291.292969 506.039062 290.964844 505.554688 290.433594 505.417969 C 289.804688 505.246094 289.152344 505.632812 288.992188 506.261719 L 288.914062 506.5625 L 273.691406 564.972656 L 276.136719 564.972656 L 291.277344 506.859375 C 291.300781 506.757812 291.292969 506.660156 291.292969 506.5625 Z M 259.945312 618.078125 L 262.808594 616.101562 L 275.519531 567.335938 L 273.078125 567.335938 L 259.828125 618.171875 C 259.871094 618.144531 259.902344 618.105469 259.945312 618.078125 Z M 292.574219 746.113281 L 290.132812 746.113281 L 274.988281 804.226562 C 274.964844 804.324219 274.972656 804.421875 274.972656 804.523438 C 274.972656 805.046875 275.304688 805.527344 275.832031 805.664062 C 275.933594 805.691406 276.035156 805.703125 276.132812 805.703125 C 276.65625 805.703125 277.136719 805.351562 277.273438 804.820312 L 277.351562 804.523438 Z M 305.660156 686.519531 L 290.746094 743.75 L 293.191406 743.75 L 308.101562 686.519531 Z M 324.246094 624.5625 L 331.773438 595.679688 L 329.035156 596.816406 L 321.804688 624.5625 Z M 336.71875 567.335938 L 334.316406 576.558594 C 334.910156 577.691406 335.417969 578.808594 335.886719 579.90625 L 339.160156 567.335938 Z M 354.9375 506.5625 C 354.9375 506.039062 354.605469 505.554688 354.074219 505.417969 C 353.449219 505.246094 352.800781 505.632812 352.632812 506.261719 L 352.554688 506.5625 L 337.335938 564.972656 L 339.777344 564.972656 L 354.921875 506.859375 C 354.945312 506.757812 354.9375 506.660156 354.9375 506.5625 Z M 321.191406 626.925781 L 306.277344 684.15625 L 308.71875 684.15625 L 323.632812 626.925781 Z M 395.136719 595.261719 L 392.144531 598.863281 L 385.449219 624.5625 L 387.890625 624.5625 L 395.574219 595.078125 Z M 406.902344 551.613281 L 418.5625 506.859375 C 418.589844 506.757812 418.578125 506.660156 418.578125 506.558594 C 418.578125 506.035156 418.25 505.554688 417.71875 505.417969 C 417.078125 505.242188 416.441406 505.632812 416.277344 506.261719 L 416.199219 506.558594 L 407.90625 538.382812 C 407.535156 543.300781 407.191406 547.800781 406.902344 551.613281 Z M 369.304688 686.519531 L 354.390625 743.75 L 356.835938 743.75 L 371.746094 686.519531 Z M 353.777344 746.113281 L 338.632812 804.226562 C 338.605469 804.324219 338.617188 804.421875 338.617188 804.523438 C 338.617188 805.046875 338.945312 805.527344 339.476562 805.664062 C 339.578125 805.691406 339.675781 805.703125 339.777344 805.703125 C 340.300781 805.703125 340.78125 805.351562 340.917969 804.820312 L 340.996094 804.523438 L 356.214844 746.113281 Z M 384.832031 626.925781 L 369.921875 684.15625 L 372.359375 684.15625 L 387.273438 626.925781 Z M 451.53125 624.5625 L 466.445312 567.335938 L 464.003906 567.335938 L 449.09375 624.5625 Z M 417.417969 746.113281 L 402.277344 804.226562 C 402.25 804.324219 402.257812 804.421875 402.257812 804.523438 C 402.257812 805.046875 402.589844 805.527344 403.121094 805.664062 C 403.21875 805.691406 403.320312 805.703125 403.417969 805.703125 C 403.945312 805.703125 404.421875 805.351562 404.5625 804.820312 L 404.640625 804.523438 L 419.859375 746.113281 Z M 467.0625 564.972656 L 482.207031 506.859375 C 482.234375 506.757812 482.222656 506.660156 482.222656 506.558594 C 482.222656 506.035156 481.894531 505.554688 481.359375 505.417969 C 480.722656 505.242188 480.085938 505.632812 479.921875 506.261719 L 479.84375 506.558594 L 464.621094 564.96875 L 467.0625 564.96875 Z M 448.476562 626.925781 L 433.5625 684.15625 L 436.003906 684.15625 L 450.917969 626.925781 Z M 432.949219 686.519531 L 418.035156 743.75 L 420.476562 743.75 L 435.386719 686.519531 Z M 530.222656 564.972656 L 545.441406 506.5625 L 545.847656 505.003906 C 546.011719 504.375 545.632812 503.726562 545 503.566406 C 544.363281 503.386719 543.726562 503.78125 543.5625 504.410156 L 543 506.5625 L 527.78125 564.972656 Z M 514.691406 624.5625 L 529.605469 567.335938 L 527.167969 567.335938 L 512.253906 624.5625 Z M 465.921875 802.371094 C 465.753906 803.003906 466.132812 803.648438 466.765625 803.8125 C 466.863281 803.839844 466.964844 803.851562 467.0625 803.851562 C 467.589844 803.851562 468.066406 803.496094 468.207031 802.96875 L 483.023438 746.113281 L 480.582031 746.113281 Z M 496.109375 686.519531 L 481.195312 743.75 L 483.636719 743.75 L 498.546875 686.519531 Z M 511.636719 626.925781 L 496.722656 684.15625 L 499.164062 684.15625 L 514.078125 626.925781 Z M 209.433594 567.335938 L 298.585938 567.335938 C 298.515625 566.679688 298.433594 565.894531 298.335938 564.972656 L 147.316406 564.972656 C 146.664062 564.972656 146.136719 565.5 146.136719 566.152344 C 146.136719 566.703125 146.519531 567.140625 147.023438 567.277344 C 147.121094 567.300781 147.214844 567.335938 147.316406 567.335938 Z M 467.0625 564.972656 L 405.886719 564.972656 C 406.496094 565.75 407.0625 566.539062 407.597656 567.335938 L 592.066406 567.335938 C 592.234375 567.335938 592.390625 567.296875 592.539062 567.234375 C 592.953125 567.050781 593.246094 566.636719 593.246094 566.152344 C 593.246094 565.890625 593.144531 565.660156 593 565.460938 C 592.78125 565.171875 592.453125 564.972656 592.066406 564.972656 Z M 339.160156 567.335938 L 372.648438 567.335938 L 373.890625 564.972656 L 330.765625 564.972656 C 330.695312 565.890625 330.636719 566.675781 330.582031 567.335938 Z M 193.902344 626.925781 L 258.34375 626.925781 L 257.742188 625.449219 C 257.625 625.15625 257.542969 624.859375 257.46875 624.5625 L 131.789062 624.5625 C 131.136719 624.5625 130.609375 625.09375 130.609375 625.746094 C 130.609375 626.296875 130.988281 626.734375 131.496094 626.867188 C 131.59375 626.894531 131.6875 626.929688 131.789062 626.929688 L 193.902344 626.929688 Z M 514.691406 624.5625 L 274.367188 624.5625 L 268.558594 626.925781 L 577.292969 626.925781 C 577.945312 626.925781 578.472656 626.398438 578.472656 625.746094 C 578.472656 625.195312 578.089844 624.757812 577.585938 624.621094 C 577.488281 624.597656 577.394531 624.5625 577.292969 624.5625 Z M 178.375 686.519531 L 561.761719 686.519531 C 562.414062 686.519531 562.945312 685.992188 562.945312 685.339844 C 562.945312 684.789062 562.5625 684.347656 562.054688 684.214844 C 561.957031 684.191406 561.867188 684.15625 561.761719 684.15625 L 116.261719 684.15625 C 115.609375 684.15625 115.078125 684.683594 115.078125 685.335938 C 115.078125 685.886719 115.460938 686.328125 115.96875 686.460938 C 116.0625 686.484375 116.15625 686.519531 116.261719 686.519531 Z M 162.847656 746.113281 L 546.234375 746.113281 C 546.886719 746.113281 547.414062 745.582031 547.414062 744.929688 C 547.414062 744.378906 547.035156 743.941406 546.527344 743.808594 C 546.429688 743.78125 546.335938 743.746094 546.234375 743.746094 L 100.730469 743.746094 C 100.078125 743.746094 99.550781 744.277344 99.550781 744.929688 C 99.550781 745.476562 99.933594 745.917969 100.4375 746.050781 C 100.535156 746.078125 100.628906 746.113281 100.730469 746.113281 Z M 529.070312 177.867188 L 524.894531 163.382812 L 515.683594 149.421875 C 517.207031 148.007812 518.578125 146.109375 519.464844 143.507812 C 521.21875 138.351562 518.191406 131.003906 510.332031 132.359375 C 505.722656 133.152344 502.898438 135.988281 501.34375 138.199219 C 501.34375 138.199219 497.453125 134.796875 490.765625 124.28125 L 492.269531 132.347656 L 485.046875 133.664062 L 473.390625 135.789062 C 473.503906 136.453125 473.621094 137.097656 473.703125 137.65625 C 474.15625 140.636719 470.726562 144.835938 467.773438 147.660156 C 466.089844 149.269531 466.8125 152.164062 468.808594 153.363281 L 471.542969 155.140625 C 473.082031 156.140625 474.132812 157.738281 474.441406 159.546875 L 474.933594 162.417969 L 476.0625 168.996094 C 476.578125 171.996094 479.222656 174.152344 482.261719 174.058594 L 489.949219 173.425781 C 493.011719 173.175781 495.839844 175.070312 496.773438 178 L 499.683594 187.15625 Z M 431.523438 342.128906 C 437.511719 347.066406 445.429688 348.992188 453.019531 347.359375 L 470.183594 343.660156 L 464.527344 322.046875 L 436.078125 320.3125 C 432.925781 319.945312 429.769531 320.933594 427.386719 323.027344 L 409.34375 338.882812 L 412.113281 347.0625 L 427.078125 338.464844 Z M 332.898438 307.550781 C 332.898438 302.140625 328.515625 297.757812 323.105469 297.757812 C 317.695312 297.757812 313.308594 302.144531 313.308594 307.550781 C 313.308594 312.960938 317.695312 317.347656 323.105469 317.347656 C 328.515625 317.347656 332.898438 312.960938 332.898438 307.550781 Z M 332.898438 307.550781 " fill-opacity="1" fill-rule="nonzero"/></g><path fill="#0496ff" d="M 605.554688 321.371094 C 605.128906 340.492188 585.960938 346.59375 565.101562 347.804688 C 564.796875 360.578125 564.457031 368.867188 564.457031 368.867188 L 521.664062 368.867188 L 519.449219 360.441406 C 518.617188 357.285156 515.765625 355.085938 512.5 355.085938 L 489.5625 355.085938 C 491.53125 355.085938 493.125 353.488281 493.125 351.519531 C 493.125 349.886719 492.019531 348.523438 490.519531 348.105469 C 479.25 348.03125 471.304688 347.957031 471.304688 347.957031 L 412.414062 347.957031 L 412.109375 347.0625 L 427.074219 338.464844 L 431.523438 342.132812 C 437.507812 347.070312 445.429688 348.996094 453.015625 347.359375 L 470.183594 343.660156 L 464.527344 322.050781 L 436.078125 320.3125 C 432.925781 319.949219 429.765625 320.933594 427.382812 323.03125 L 409.34375 338.882812 L 400.636719 313.152344 L 436.519531 308.652344 C 436.519531 308.652344 440.835938 239.976562 451.453125 218.03125 C 454.117188 212.527344 458.476562 207.84375 463.519531 203.914062 C 478.570312 192.175781 499.679688 187.164062 499.679688 187.164062 L 529.066406 177.871094 C 529.066406 177.871094 545.527344 182 560.941406 188.984375 C 571.148438 193.605469 580.898438 199.480469 585.105469 206.242188 C 601.980469 233.386719 606 301.351562 605.554688 321.371094 Z M 605.554688 321.371094 " fill-opacity="1" fill-rule="nonzero"/><g clip-path="url(#932e16116f)"><path fill="#ffde59" d="M 407.597656 567.335938 C 413.894531 576.765625 414.863281 587.066406 414.863281 587.066406 L 395.574219 595.078125 L 395.136719 595.257812 L 392.144531 598.863281 L 390.886719 600.382812 C 389.21875 602.390625 387.082031 603.957031 384.664062 604.941406 L 337.964844 623.941406 C 336.503906 624.535156 334.835938 623.832031 334.242188 622.371094 L 333.265625 619.972656 C 332.179688 617.304688 333.09375 614.238281 335.46875 612.601562 L 350.980469 601.902344 C 354.082031 599.761719 356.714844 597.019531 358.730469 593.835938 L 372.652344 567.328125 L 373.890625 564.96875 L 374.347656 564.097656 L 405.175781 564.097656 C 405.417969 564.386719 405.65625 564.675781 405.886719 564.96875 C 406.496094 565.75 407.0625 566.539062 407.597656 567.335938 Z M 335.886719 579.90625 C 335.417969 578.808594 334.910156 577.691406 334.316406 576.558594 C 333.082031 574.207031 331.542969 571.828125 329.652344 569.570312 L 298.824219 569.570312 L 283.207031 599.308594 C 281.195312 602.492188 278.558594 605.234375 275.457031 607.375 L 262.808594 616.101562 L 259.945312 618.078125 C 259.902344 618.105469 259.867188 618.144531 259.828125 618.171875 C 257.800781 619.644531 256.898438 622.175781 257.46875 624.5625 C 257.542969 624.859375 257.625 625.15625 257.746094 625.445312 L 258.347656 626.925781 L 258.71875 627.84375 C 258.890625 628.261719 259.164062 628.597656 259.480469 628.878906 C 260.269531 629.578125 261.402344 629.839844 262.441406 629.414062 L 268.558594 626.925781 L 274.367188 624.5625 L 309.140625 610.414062 C 311.558594 609.429688 313.699219 607.863281 315.363281 605.855469 L 319.617188 600.730469 L 329.035156 596.816406 L 331.777344 595.679688 L 339.34375 592.539062 C 339.339844 592.539062 338.789062 586.761719 335.886719 579.90625 Z M 521.664062 368.867188 L 519.449219 360.441406 C 518.621094 357.285156 515.765625 355.085938 512.503906 355.085938 L 262.808594 355.085938 C 259.546875 355.085938 256.695312 357.285156 255.863281 360.441406 L 236.648438 433.507812 L 236.503906 434.0625 L 287.4375 434.0625 C 286.84375 420.140625 286.804688 408.96875 287.667969 403.160156 C 288.445312 397.929688 299.351562 393.253906 315.515625 389.15625 L 322.328125 363.246094 L 452.980469 363.246094 L 454.835938 370.300781 L 467.980469 420.292969 L 471.601562 434.0625 L 536.957031 434.0625 C 537.613281 434.0625 538.222656 434.0625 538.804688 434.0625 Z M 276.132812 193.359375 C 224.105469 193.359375 181.78125 151.03125 181.78125 99.003906 C 181.78125 46.976562 224.105469 4.648438 276.132812 4.648438 C 328.160156 4.648438 370.488281 46.976562 370.488281 99.003906 C 370.488281 151.03125 328.160156 193.359375 276.132812 193.359375 Z M 276.132812 173.589844 C 317.324219 173.589844 350.71875 140.195312 350.71875 99.003906 C 350.71875 57.8125 317.324219 24.417969 276.132812 24.417969 C 234.941406 24.417969 201.550781 57.8125 201.550781 99.003906 C 201.550781 140.195312 234.941406 173.589844 276.132812 173.589844 Z M 276.132812 173.589844 " fill-opacity="1" fill-rule="nonzero"/></g><g clip-path="url(#999f9a071b)"><path fill="#545454" d="M 725.042969 804.523438 L 530.707031 804.523438 L 545.925781 746.113281 L 546.234375 746.113281 C 546.886719 746.113281 547.414062 745.582031 547.414062 744.929688 C 547.414062 744.378906 547.03125 743.941406 546.523438 743.808594 L 561.453125 686.519531 L 561.761719 686.519531 C 562.414062 686.519531 562.945312 685.992188 562.945312 685.335938 C 562.945312 684.789062 562.5625 684.347656 562.054688 684.214844 L 576.984375 626.925781 L 577.292969 626.925781 C 577.945312 626.925781 578.472656 626.398438 578.472656 625.746094 C 578.472656 625.195312 578.089844 624.753906 577.585938 624.621094 L 592.539062 567.230469 C 592.957031 567.050781 593.25 566.636719 593.25 566.152344 C 593.25 565.890625 593.148438 565.65625 593 565.460938 L 627.386719 433.503906 L 628.363281 433.503906 Z M 496.769531 178 C 495.839844 175.074219 493.011719 173.175781 489.949219 173.429688 L 482.257812 174.0625 C 479.222656 174.15625 476.578125 171.996094 476.0625 169 L 474.933594 162.417969 L 474.441406 159.546875 C 474.128906 157.738281 473.078125 156.140625 471.539062 155.140625 L 468.808594 153.363281 C 466.8125 152.164062 466.089844 149.269531 467.773438 147.660156 C 470.726562 144.835938 474.15625 140.636719 473.703125 137.65625 C 473.617188 137.097656 473.503906 136.453125 473.386719 135.792969 L 485.042969 133.667969 L 492.265625 132.347656 L 490.761719 124.28125 C 497.453125 134.800781 501.34375 138.199219 501.34375 138.199219 C 502.898438 135.988281 505.71875 133.15625 510.332031 132.359375 C 518.1875 131.003906 521.21875 138.351562 519.464844 143.511719 C 518.578125 146.109375 517.207031 148.011719 515.683594 149.425781 L 524.894531 163.386719 L 529.066406 177.871094 C 529.066406 177.871094 545.527344 181.996094 560.941406 188.980469 C 550.925781 158.214844 537.894531 122.027344 529.210938 112.304688 C 513.367188 94.570312 483.597656 102.023438 472.507812 115.476562 C 464.214844 125.539062 465.09375 136.945312 464.804688 155.695312 C 464.691406 163.152344 464.089844 184.480469 463.515625 203.914062 C 478.570312 192.171875 499.679688 187.160156 499.679688 187.160156 Z M 538.808594 434.058594 C 539.496094 434.058594 540.148438 434.058594 540.734375 434.058594 C 542.726562 434.058594 544.539062 433.84375 546.253906 433.503906 C 577.292969 427.386719 563.960938 368.867188 563.960938 368.867188 L 521.664062 368.867188 Z M 471.601562 434.058594 L 467.984375 420.289062 L 454.835938 370.300781 C 421.988281 372.992188 353.90625 379.429688 315.515625 389.15625 C 299.351562 393.253906 288.445312 397.933594 287.667969 403.160156 C 286.804688 408.96875 286.847656 420.140625 287.441406 434.0625 C 288.332031 454.972656 290.46875 482.085938 292.652344 506.5625 C 294.96875 532.519531 297.339844 555.503906 298.335938 564.972656 C 298.433594 565.894531 298.515625 566.679688 298.585938 567.335938 C 298.738281 568.78125 298.828125 569.574219 298.828125 569.574219 L 330.410156 569.574219 C 330.410156 569.574219 330.472656 568.757812 330.585938 567.335938 C 330.636719 566.679688 330.695312 565.890625 330.769531 564.972656 C 331.570312 554.683594 333.550781 528.90625 335.101562 506.5625 C 336.042969 492.945312 336.828125 480.613281 337.082031 473.875 C 337.972656 450.296875 337.996094 439.539062 337.996094 439.539062 C 337.996094 439.539062 349.039062 440.078125 363.492188 439.230469 C 364.644531 459.945312 366.671875 484.625 368.667969 506.5625 C 371.542969 538.191406 374.347656 564.101562 374.347656 564.101562 L 405.929688 564.101562 C 405.929688 564.101562 406.316406 559.214844 406.898438 551.613281 C 407.191406 547.800781 407.535156 543.304688 407.90625 538.386719 C 408.636719 528.703125 409.46875 517.421875 410.238281 506.5625 C 411.347656 490.839844 412.316406 476.03125 412.601562 468.402344 C 413.492188 444.824219 413.515625 434.066406 413.515625 434.066406 C 413.515625 434.066406 505.089844 434.058594 535.554688 434.058594 Z M 277.316406 91.25 L 277.316406 33.523438 C 277.316406 32.871094 276.785156 32.34375 276.132812 32.34375 C 275.480469 32.34375 274.953125 32.871094 274.953125 33.523438 L 274.953125 91.25 C 271.167969 91.820312 268.261719 95.058594 268.261719 99.003906 C 268.261719 100.085938 268.480469 101.113281 268.875 102.050781 L 238.664062 117.789062 C 238.085938 118.089844 237.859375 118.804688 238.164062 119.382812 C 238.371094 119.789062 238.785156 120.019531 239.210938 120.019531 C 239.394531 120.019531 239.582031 119.976562 239.757812 119.886719 L 270.136719 104.054688 C 271.582031 105.769531 273.71875 106.878906 276.132812 106.878906 C 280.480469 106.878906 284.007812 103.351562 284.007812 99.003906 C 284.007812 95.058594 281.097656 91.820312 277.316406 91.25 Z M 277.316406 91.25 " fill-opacity="1" fill-rule="nonzero"/></g></svg>